<svg width="3704" height="3704" viewBox="0 0 3704 3704" fill="none" xmlns="http://www.w3.org/2000/svg">
<path d="M1716.92 438.581C1656.58 451.417 1619.36 464.896 1546.83 500.197C1185.48 674.774 838.249 1228.03 763.797 1747.91C745.184 1875.64 743.9 2117.61 761.23 2117.61C764.439 2117.61 767.006 2109.9 767.006 2100.92C767.006 2091.93 774.066 2052.78 783.052 2013.63C902.432 1485.4 1399.21 918.027 1879.3 760.779C1998.68 721.627 2066.71 710.075 2162.99 713.926C2236.16 717.135 2297.77 726.762 2335 741.524C2343.98 744.733 2342.7 738.957 2326.66 712C2295.85 659.37 2232.95 586.202 2186.09 547.05C2138.6 507.898 2048.1 460.403 1989.69 444.999C1937.06 430.879 1772.76 427.028 1716.92 438.581Z" fill="#09BFC0"/>
<path d="M2555.15 997.621C2527.55 1115.72 2484.55 1169.63 2390.2 1206.22C2362.6 1216.49 2334.36 1225.47 2326.66 1225.47C2299.7 1225.47 2315.1 1235.74 2353.61 1244.08C2457.59 1265.26 2527.55 1333.3 2551.3 1437.27C2557.72 1463.59 2560.93 1469.37 2564.13 1459.74C2566.7 1452.68 2575.05 1426.36 2583.39 1401.97C2591.09 1376.94 2607.14 1344.21 2618.69 1328.16C2645.01 1292.22 2708.55 1253.71 2757.97 1243.44C2778.51 1238.95 2795.19 1233.81 2795.19 1231.89C2795.19 1229.96 2774.01 1221.62 2748.34 1213.92C2646.93 1182.47 2593.66 1123.42 2567.99 1013.67C2559.64 980.292 2559 979.65 2555.15 997.621Z" fill="#09BFC0"/>
<path d="M1658.51 1320.45C1641.82 1331.36 1592.4 1383.35 1537.85 1447.54C1427.45 1576.54 1182.91 1823.01 1062.25 1926.34C1014.75 1966.78 961.483 2014.91 944.795 2033.53C866.492 2116.96 854.939 2230.57 912.062 2353.8C1035.94 2622.72 1406.91 2787.67 1809.34 2753.02C2051.95 2732.48 2236.8 2656.74 2384.42 2517.46C2449.89 2456.49 2487.12 2407.71 2516 2348.02C2544.24 2289.62 2553.22 2242.76 2550.01 2181.79C2544.24 2093.22 2511.5 2048.93 2361.96 1928.27C2182.89 1784.5 2062.22 1664.47 1872.24 1441.76C1750.94 1300.56 1718.84 1282.59 1658.51 1320.45ZM1665.57 1969.98C1672.63 1977.04 1678.41 1987.96 1678.41 1993.73C1679.05 2000.15 1680.33 2028.39 1682.26 2055.99C1687.39 2122.74 1680.33 2173.44 1664.93 2188.85C1654.02 2199.76 1643.11 2201.04 1557.74 2201.04C1431.95 2201.04 1437.72 2207.46 1437.72 2077.81C1437.72 1952.01 1432.59 1957.15 1560.31 1957.15C1644.39 1957.15 1654.02 1958.43 1665.57 1969.98ZM1980.07 1969.98C1991.62 1981.54 1992.91 1991.16 1992.91 2079.1C1992.91 2207.46 1999.32 2201.04 1868.39 2201.04C1758 2201.04 1752.86 2199.12 1745.16 2159.32C1743.23 2147.13 1741.95 2102.2 1743.23 2059.2C1746.44 1954.58 1743.23 1957.15 1871.6 1957.15C1958.89 1957.15 1968.52 1958.43 1980.07 1969.98ZM1663 2273.57C1679.69 2287.69 1679.69 2289.62 1680.98 2371.13C1681.62 2462.27 1677.77 2486.01 1661.08 2493.07C1643.75 2500.14 1523.09 2505.27 1489.07 2500.14C1437.72 2492.43 1434.51 2484.73 1434.51 2380.75C1434.51 2293.47 1435.15 2289.62 1450.56 2274.85C1465.32 2259.45 1469.17 2258.81 1555.82 2258.81C1639.9 2258.81 1646.32 2259.45 1663 2273.57ZM1977.5 2267.79C1988.41 2276.14 1989.7 2286.41 1991.62 2372.41C1994.19 2501.42 1996.76 2498.85 1888.93 2501.42C1842.72 2502.7 1798.43 2500.78 1782.38 2496.93C1759.28 2490.51 1754.79 2486.01 1748.37 2465.48C1744.52 2451.36 1742.59 2409 1743.87 2362.14C1746.44 2256.24 1743.23 2258.81 1870.32 2258.81C1941.56 2258.81 1967.87 2260.73 1977.5 2267.79Z" fill="#09BFC0"/>
<path d="M2843.98 1459.74C2825.37 1538.04 2793.27 1577.19 2731.66 1595.16C2694.43 1606.71 2685.45 1616.98 2713.69 1616.98C2736.15 1616.98 2791.35 1645.87 2808.68 1666.4C2825.37 1686.3 2836.28 1709.41 2843.34 1742.14C2847.83 1760.75 2848.47 1760.11 2859.38 1724.81C2865.16 1704.91 2876.71 1679.88 2884.41 1669.61C2899.82 1647.79 2958.22 1616.98 2983.9 1616.98C3010.85 1616.98 3008.29 1606.71 2979.41 1598.37C2912.65 1578.47 2874.79 1539.96 2857.46 1474.5C2848.47 1441.76 2847.83 1441.12 2843.98 1459.74Z" fill="#09BFC0"/>
<path d="M2816.51 1805.93C2817.59 1811.57 2827.87 1843.79 2839.49 1878.39C2909.28 2092.67 2935.81 2273.47 2919.42 2436.2C2910.98 2523.16 2866.2 2665.92 2826.46 2731.42C2719.77 2909.45 2561.63 3014.35 2345.35 3050.91C2309.67 3056.89 2279.72 3063.81 2279.2 3065.66C2276.77 3074.31 2507.8 3125.23 2564.86 3128.59C2833.82 3144.17 3041.22 3032.44 3134.99 2822.11C3221.77 2627.16 3138.62 2261.12 2940 1961.97C2888.09 1883.38 2812.2 1788.05 2816.51 1805.93Z" fill="#09BFC0"/>
<path d="M503.859 2218.37C430.049 2299.24 363.298 2413.49 339.55 2500.78C324.146 2558.54 320.937 2646.47 332.49 2693.33C366.507 2825.54 473.051 2937.22 640.569 3016.17C820.924 3100.89 998.069 3134.26 1264.43 3134.91C1408.2 3134.91 1444.14 3132.34 1524.37 3120.14C1629.63 3102.81 1731.68 3077.78 1815.76 3048.26C1877.38 3026.44 2025.64 2956.48 1999.33 2961.61C1990.34 2963.54 1940.28 2969.31 1887.01 2975.09C1757.36 2989.21 1547.48 2984.08 1437.72 2964.82C1104.61 2907.06 816.431 2757.51 658.54 2562.39C564.191 2444.94 518.621 2305.66 542.369 2204.25C545.578 2190.13 546.862 2177.94 546.22 2176.66C544.936 2176.01 526.323 2194.63 503.859 2218.37Z" fill="#09BFC0"/>
</svg>
