<svg width="8217" height="8217" viewBox="0 0 8217 8217" fill="none" xmlns="http://www.w3.org/2000/svg">
<path d="M4853.17 3665.35C4855.49 3663.03 4859.39 3661.14 4861.83 3661.14C4871.1 3661.14 4937.92 3637.9 4956.69 3628.14C4967.47 3622.53 4980.49 3613.8 4985.64 3608.71C4994.87 3599.61 5011.9 3576.25 5011.93 3572.67C5011.94 3571.66 5013.79 3567.32 5016.02 3563.03C5023.07 3549.55 5040.08 3502.77 5043.16 3488.38C5045.84 3475.89 5050.72 3467.45 5055.26 3467.45C5060.23 3467.45 5066.91 3480.64 5069.61 3495.83C5072.34 3511.17 5089.46 3558.57 5094.28 3564.08C5096.26 3566.36 5100.04 3572.93 5102.69 3578.69C5108.8 3592.02 5133.63 3616.27 5148.67 3623.59C5155.03 3626.69 5164.38 3631.22 5169.44 3633.67C5174.5 3636.1 5189.85 3641.59 5203.57 3645.86C5217.29 3650.12 5232.23 3655.31 5236.79 3657.38C5241.33 3659.45 5246.99 3661.14 5249.34 3661.14C5254.58 3661.14 5257.77 3668.36 5254.12 3671.99C5252.66 3673.46 5246.3 3675.75 5239.99 3677.1C5233.68 3678.45 5226.14 3680.63 5223.26 3681.95C5220.38 3683.25 5206.19 3688 5191.75 3692.49C5137.41 3709.37 5112.84 3727.41 5095.41 3763.23C5085.42 3783.75 5069.68 3831.65 5069.68 3841.51C5069.68 3848.41 5063.72 3860.45 5057.99 3865.21C5052.34 3869.88 5044.97 3863.22 5041.23 3850.11C5036.94 3834.99 5030.07 3815.05 5026.07 3806.02C5024.06 3801.48 5022.42 3796.87 5022.42 3795.75C5022.42 3793.01 5010.55 3763.64 5005.6 3754.11C4998.5 3740.49 4975.05 3719.17 4957.12 3710.06C4947.54 3705.19 4927.31 3697.38 4912.14 3692.7C4896.98 3688.02 4879.52 3682.53 4873.33 3680.52C4867.14 3678.5 4860.49 3676.85 4858.56 3676.85C4856.62 3676.85 4853.66 3675.2 4851.99 3673.19C4849.65 3670.38 4849.91 3668.59 4853.17 3665.35Z" fill="url(#paint0_linear_147_90)"/>
<path d="M3926.22 3371.77C3931.22 3369.68 3936.83 3367.96 3938.68 3367.93C3941.66 3367.88 3952.59 3364.12 3988.84 3350.66C4034.49 3333.72 4061.31 3307.08 4075.49 3264.59C4079.33 3253.07 4085.77 3233.73 4089.79 3221.59C4100.75 3188.54 4101.52 3188.94 4116.54 3235.8C4127.87 3271.1 4146.79 3308.57 4158.77 3319.35C4169.78 3329.27 4196.94 3345.68 4210.9 3350.83C4216.09 3352.75 4228.03 3357.32 4237.41 3360.97C4246.8 3364.63 4261.56 3369.77 4270.23 3372.39C4292.44 3379.1 4291.07 3383.51 4264.6 3390.43C4252.85 3393.51 4238 3398.56 4231.61 3401.64C4225.23 3404.72 4219.32 3407.25 4218.47 3407.25C4217.62 3407.25 4206.84 3411.93 4194.53 3417.66C4164.36 3431.68 4147.32 3448.42 4133.16 3477.92C4122.85 3499.41 4110.94 3533.02 4107.43 3550.53C4102.66 3574.35 4093.51 3560.4 4076.11 3502.78C4064.67 3464.9 4052.54 3444.51 4032.06 3428.76C4024.16 3422.68 4016.81 3417.72 4015.71 3417.72C4014.62 3417.72 4010.01 3416.01 4005.45 3413.93C3992.97 3408.23 3949.03 3391.54 3946.52 3391.54C3945.3 3391.54 3938.2 3389.72 3930.71 3387.51C3914.6 3382.74 3913.03 3377.26 3926.22 3371.77Z" fill="url(#paint1_linear_147_90)"/>
<path d="M2819.73 4290.66C2820.71 4264.74 2822.89 4231.18 2824.58 4216.06C2826.28 4200.95 2829.43 4166.19 2831.59 4138.85C2837.62 4062.71 2840.64 4033.33 2844.64 4011.89C2846.66 4001.09 2849 3983.43 2849.84 3972.63C2850.69 3961.83 2859.76 3940.12 2861.81 3928.59C2863.85 3917.08 2867.35 3890.71 2871.13 3863.35C2874.92 3836.01 2878.48 3813.19 2880.45 3807.43C2882.41 3801.68 2888.88 3786.67 2889.77 3779.47C2890.66 3772.28 2897.08 3760.15 2899.09 3751.51C2901.1 3742.88 2904.66 3716.47 2908.41 3695.59C2912.16 3674.71 2915.68 3655.47 2917.73 3648.99C2919.77 3642.52 2923.99 3617.51 2927.05 3602.39C2930.11 3587.28 2931.39 3573.75 2934.06 3565.11C2936.74 3556.48 2949.04 3545.18 2950.05 3539.42C2951.04 3533.67 2948.7 3524.65 2950.05 3522.04C2951.41 3519.43 2959.24 3508.09 2964.33 3490.55C2977.82 3444.01 2991.02 3386.23 3001.61 3360.07C3003.06 3356.47 3009.86 3346.48 3010.93 3341.43C3012.01 3336.4 3009.62 3333.74 3010.93 3332.11C3012.25 3330.47 3015.07 3319.07 3020.25 3304.15C3036.67 3256.86 3041.03 3245.64 3048.21 3229.59C3052.08 3220.96 3063.26 3210.98 3066.85 3201.63C3070.44 3192.28 3072.77 3171.55 3076.17 3164.35C3079.57 3157.16 3081.87 3146.48 3085.49 3136.4C3093.4 3114.45 3099.54 3110.25 3113.45 3080.48C3142.35 3018.65 3186.18 2940.66 3197.34 2922.04C3201.57 2914.97 3211.37 2893 3215.98 2884.76C3220.59 2876.5 3229.36 2865.96 3234.62 2856.8C3239.87 2847.62 3247.17 2831.03 3253.26 2819.52C3259.35 2807.99 3260.56 2793.83 3262.58 2791.56C3264.59 2789.29 3271.9 2783.27 3271.9 2782.24C3271.9 2781.19 3274.98 2775.8 3280.35 2767.6C3285.72 2759.39 3289.06 2756.74 3290.54 2754.28C3299.1 2740.1 3350.57 2666.7 3355.78 2661.08C3359.2 2657.4 3374.42 2643.63 3374.42 2642.44C3374.42 2638.74 3423.4 2569.72 3448.99 2539.92C3454.54 2533.44 3474.9 2514.38 3476.95 2511.96C3511.58 2471.08 3568.04 2406.23 3598.11 2381.48C3607.5 2373.76 3623.84 2372.37 3635.39 2362.84C3710.38 2300.93 3795.48 2229.32 3872.51 2199.53C3886.21 2194.23 3900.95 2188.2 3905.28 2186.13C3922.01 2178.15 3975.28 2162.96 4006.36 2157.32C4011.42 2156.4 4020.28 2154.06 4026.06 2152.11C4031.83 2150.16 4046.59 2147.89 4058.87 2147.06C4071.14 2146.25 4094.19 2144.38 4110.07 2142.93C4143.01 2139.9 4231.23 2145.62 4254.47 2152.3C4261.69 2154.37 4276.46 2157.88 4287.28 2160.09C4322.75 2167.33 4360.4 2178.14 4377.87 2186.08C4382.19 2188.06 4393.55 2192.59 4403.07 2196.15C4412.61 2199.72 4422.66 2203.84 4425.4 2205.3C4428.14 2206.78 4448.68 2216.93 4471.07 2227.87C4493.45 2238.81 4515.3 2250.06 4519.64 2252.87C4523.97 2255.68 4531.06 2259.95 4535.39 2262.36C4549.4 2270.16 4615.57 2321.19 4634.8 2339.03C4667.92 2369.75 4709.74 2415.06 4724.43 2436.13C4729.95 2444.05 4737.23 2454.17 4740.6 2458.62C4743.98 2463.08 4746.74 2467.49 4746.74 2468.43C4746.74 2469.37 4750.58 2475.74 4755.27 2482.59C4759.96 2489.43 4765.26 2497.38 4767.03 2500.26C4772.68 2509.41 4807.13 2578.49 4807.13 2580.68C4807.13 2581.83 4809.44 2587.76 4812.26 2593.87C4817.78 2605.81 4824.17 2622.98 4828.56 2637.68C4830.07 2642.72 4832.25 2648.02 4833.42 2649.47C4834.58 2650.9 4836.67 2657.97 4838.05 2665.17C4839.44 2672.36 4843.22 2688.86 4846.46 2701.81C4862.45 2765.74 4864.03 2774.31 4870.53 2832.69C4878.25 2902 4878.24 3007.56 4870.52 3081.35C4865.25 3131.61 4863.63 3142.73 4855.61 3183.45C4853.62 3193.52 4850.89 3207.65 4849.52 3214.85C4845.88 3233.96 4839.01 3266.46 4832.91 3293.38C4827.52 3317.17 4826.09 3322.39 4813.88 3362.9C4810.17 3375.23 4807.13 3387.2 4807.13 3389.53C4807.13 3394.81 4794.65 3409.86 4790.28 3409.86C4785.81 3409.86 4777.48 3400.12 4771.26 3387.61C4746.48 3337.69 4723.25 3294.9 4710.63 3275.93C4685.59 3238.26 4681.45 3232.41 4676.43 3227.45C4673.78 3224.84 4662.67 3212.1 4651.77 3199.15C4621.9 3163.69 4609.82 3151.63 4570.84 3118.28C4544.12 3095.44 4493.12 3059.1 4487.76 3059.1C4486.75 3059.1 4484.06 3057.56 4481.78 3055.67C4479.5 3053.78 4468.77 3048.85 4457.94 3044.71C4447.11 3040.56 4437.07 3036.33 4435.63 3035.3C4427.92 3029.76 4360.84 3010.69 4339.8 3008.04C4331.85 3007.05 4318.27 3004.61 4309.6 3002.61C4290.69 2998.25 4230.91 2997.72 4210.85 3001.73C4203.07 3003.29 4186.08 3006.09 4173.08 3007.96C4125.93 3014.77 4045.81 3037.02 3997.17 3056.84C3962.36 3071.01 3901.9 3102.48 3869.84 3123.09C3807.27 3163.3 3787.58 3176.61 3771.18 3189.7C3769.62 3190.95 3763.5 3195.02 3757.58 3198.75C3747.28 3205.23 3701.93 3238.91 3699.18 3242.12C3698.46 3242.97 3691.16 3248.74 3682.95 3254.96C3674.74 3261.19 3665.28 3268.87 3661.94 3272.06C3658.61 3275.25 3649.44 3283.11 3641.57 3289.54C3633.7 3295.97 3618.94 3309.05 3608.75 3318.6C3598.56 3328.15 3585.46 3339.93 3579.64 3344.78C3573.81 3349.61 3563.77 3358.89 3557.32 3365.38C3550.87 3371.87 3535.56 3386.72 3523.28 3398.38C3453.4 3464.74 3381.61 3544.11 3305.72 3638.89C3283.82 3666.25 3258.24 3698.19 3248.88 3709.87C3239.52 3721.56 3231.85 3731.97 3231.85 3732.99C3231.85 3734.69 3225.17 3744.29 3187.1 3797.25C3180.37 3806.61 3167.03 3826.04 3157.45 3840.44C3147.86 3854.84 3135.29 3873.09 3129.48 3881.01C3123.68 3888.93 3118.15 3897.18 3117.21 3899.34C3116.26 3901.5 3108.64 3913.49 3100.27 3925.99C3087.07 3945.71 3057.88 3995.05 3052.55 4006.66C3051.56 4008.82 3045.38 4018.83 3038.83 4028.91C3032.28 4038.98 3024.58 4051.94 3021.72 4057.7C3018.87 4063.46 3013.79 4072.88 3010.44 4078.64C2999.46 4097.52 2952.88 4184.09 2949.18 4192.51C2948.23 4194.66 2945.5 4199.37 2943.12 4202.98C2940.74 4206.57 2935.55 4216.9 2931.57 4225.92C2927.6 4234.94 2920.47 4249.16 2915.73 4257.53C2910.99 4265.89 2904.39 4280.89 2901.07 4290.86C2897.76 4300.84 2894.09 4310.75 2892.89 4312.91C2885.08 4327.19 2866.49 4367.45 2865.17 4372.98C2864.29 4376.65 2862.3 4382.01 2860.74 4384.9C2859.18 4387.77 2853.64 4400.58 2848.4 4413.34C2841.57 4430 2836.87 4437.75 2831.73 4440.83C2824.98 4444.86 2824.35 4444.81 2820.8 4440.02C2816.67 4434.43 2816.29 4381.69 2819.73 4290.66Z" fill="url(#paint2_linear_147_90)"/>
<g filter="url(#filter0_d_147_90)">
<path d="M2816.63 4305.63C2817.75 4292.92 2820.02 4256.21 2821.67 4224.06C2825.61 4147.88 2830.52 4094.31 2838.11 4044.62C2839.61 4034.89 2841.83 4016.88 2843.07 4004.6C2844.32 3992.3 2846.72 3977.95 2848.4 3972.7C2850.1 3967.43 2853.74 3946.3 2856.52 3925.7C2864.36 3867.58 2868.39 3845.08 2877.61 3808.07C2879.28 3801.33 2882.39 3785.43 2884.51 3772.72C2886.64 3760.01 2890.01 3744.1 2891.99 3737.37C2893.98 3730.65 2896.45 3719.75 2897.47 3713.18C2898.5 3706.6 2900.99 3697.16 2903.01 3692.19C2905.03 3687.23 2906.7 3679.77 2906.74 3675.6C2906.77 3671.45 2910.99 3651.52 2916.12 3631.33C2921.24 3611.15 2926.45 3588.36 2927.69 3580.7C2928.94 3573.04 2931.35 3564.09 2933.05 3560.81C2935.92 3555.31 2951.27 3503.04 2957.47 3477.71C2958.92 3471.74 2962.26 3461.95 2964.86 3455.96C2967.47 3449.98 2974.63 3428.57 2980.77 3408.38C2986.91 3388.19 2994.18 3366.17 2996.93 3359.44C3001.28 3348.77 3006.44 3333.8 3021.79 3287.39C3023.76 3281.41 3027.86 3271.67 3030.88 3265.74C3033.89 3259.82 3036.37 3252.85 3036.37 3250.27C3038.89 3248.24 3037.41 3244.9 3038.68 3244.1C3039.97 3243.28 3043.69 3235.57 3046.96 3226.94C3050.24 3218.31 3055.59 3205.75 3058.85 3199.02C3062.12 3192.29 3067.47 3177.61 3070.74 3166.39C3074.02 3155.18 3077.92 3143.56 3079.44 3140.57C3080.95 3137.57 3083.15 3133.3 3084.32 3131.05C3085.49 3128.81 3091.33 3115.96 3097.29 3102.5C3103.25 3089.05 3111.7 3071.31 3116.06 3063.08C3120.41 3054.86 3127.53 3040.16 3131.87 3030.45C3136.22 3020.73 3143.36 3006.05 3147.75 2997.82C3152.14 2989.6 3160.42 2973.08 3166.16 2961.12C3171.9 2949.16 3178.09 2936.98 3179.92 2934.09C3190.96 2916.64 3199.96 2900.55 3201.49 2895.54C3202.46 2892.38 3205.6 2887.6 3208.47 2884.92C3211.35 2882.25 3213.71 2878.86 3213.71 2877.37C3213.71 2875.89 3217.71 2868.43 3222.59 2860.8C3227.49 2853.17 3232.94 2842.35 3234.69 2836.77C3236.46 2831.18 3238.98 2825.93 3240.3 2825.09C3241.61 2824.25 3246.93 2815.98 3252.12 2806.7C3264.45 2784.65 3266.04 2782.08 3278.55 2763.85C3284.37 2755.36 3290.92 2745.64 3293.1 2742.23C3295.28 2738.83 3299.45 2732.86 3302.37 2728.95C3311.44 2716.79 3319.57 2704.46 3319.57 2702.89C3319.57 2702.05 3326.42 2692.3 3334.79 2681.2C3343.16 2670.1 3353.58 2655.9 3357.94 2649.66C3362.31 2643.41 3370.66 2631.77 3376.48 2623.77C3382.3 2615.79 3391.16 2603.39 3396.16 2596.21C3404.66 2584.04 3421.53 2563.64 3460.78 2518.07C3505.88 2465.7 3534.03 2436.81 3593.51 2381.89C3603.71 2372.47 3617.4 2360.43 3623.95 2355.14C3657.11 2328.35 3698.12 2296.85 3709.35 2289.57C3716.28 2285.06 3729.97 2275.71 3739.78 2268.79C3755.17 2257.92 3776.67 2245.45 3814.51 2225.45C3845.18 2209.24 3887.52 2190.92 3925.68 2177.35C3932.23 2175.02 3939.97 2172.15 3942.88 2170.97C3953.58 2166.63 3988.39 2157.84 4006.41 2154.92C4016.6 2153.27 4029.7 2150.22 4035.51 2148.15C4069.35 2136.1 4229.81 2136.18 4264.47 2148.25C4271.02 2150.54 4286.5 2154.07 4298.87 2156.14C4311.25 2158.19 4324.94 2161.17 4329.31 2162.77C4333.68 2164.37 4346.78 2168.67 4358.43 2172.32C4386.9 2181.25 4442.72 2205.05 4457.68 2214.62C4459.86 2216.02 4468.8 2220.74 4477.53 2225.12C4518.25 2245.51 4540.52 2259.21 4559.17 2275.31C4564.77 2280.15 4574.04 2287.37 4579.77 2291.36C4600.1 2305.54 4676.4 2376.28 4706.71 2409.07C4720.34 2423.79 4724.19 2429.53 4721.71 2431.45C4719.59 2433.08 4707.28 2432.8 4687.95 2430.65C4597.72 2420.62 4493.87 2419.03 4435.18 2426.74C4423.53 2428.29 4403.88 2430.66 4391.51 2432.05C4353.82 2436.26 4313.82 2443.29 4310.27 2446.32C4308.42 2447.89 4298.19 2450.19 4287.53 2451.42C4268.94 2453.56 4193.14 2475.62 4186.8 2480.73C4185.11 2482.09 4178.68 2483.99 4172.5 2484.96C4166.32 2485.94 4156.19 2489.03 4150 2491.86C4138.02 2497.32 4108.6 2509.18 4091.1 2515.61C4081.17 2519.26 4063.4 2527.97 4051.4 2535.09C4048.49 2536.82 4034.79 2543.81 4020.96 2550.64C4007.13 2557.46 3992.84 2564.7 3989.2 2566.72C3985.56 2568.74 3978.41 2572.34 3973.32 2574.73C3961.84 2580.09 3936.49 2594.56 3932.24 2598.18C3930.52 2599.66 3923.26 2604.03 3916.14 2607.9C3909.01 2611.76 3900.8 2617.16 3897.89 2619.89C3894.97 2622.62 3881.2 2632.67 3867.26 2642.21C3853.33 2651.75 3840.23 2660.98 3838.15 2662.74C3836.07 2664.5 3821.26 2675.99 3805.26 2688.28C3761.99 2721.49 3720.33 2756.28 3682.34 2790.91C3654.69 2816.12 3564.27 2908.93 3548.46 2928.34C3541.21 2937.23 3532.83 2947.02 3529.82 2950.09C3526.82 2953.16 3516.12 2966.08 3506.05 2978.79C3495.97 2991.5 3486.81 3002.59 3485.67 3003.43C3484.54 3004.28 3478.57 3011.81 3472.4 3020.18C3448.68 3052.33 3439.59 3064.01 3427.79 3077.59C3421.07 3085.3 3412.39 3096.52 3408.48 3102.5C3404.59 3108.48 3397.3 3119.5 3392.29 3126.97C3387.27 3134.45 3381.67 3142.91 3379.83 3145.77C3377.99 3148.63 3371.71 3157.19 3365.88 3164.8C3360.06 3172.4 3351.72 3183.97 3347.36 3190.48C3343 3197 3334.66 3209.35 3328.84 3217.91C3323.01 3226.48 3315.86 3237.01 3312.95 3241.3C3310.05 3245.59 3304.38 3252.79 3300.38 3257.29C3296.38 3261.8 3293.1 3266.63 3293.1 3268.03C3293.1 3269.43 3288.54 3276.81 3282.98 3284.42C3277.41 3292.03 3269.37 3304.38 3265.13 3311.86C3260.89 3319.34 3251.38 3334.64 3243.98 3345.84C3236.59 3357.06 3229.26 3370.04 3227.68 3374.7C3225.21 3382.01 3221.66 3388.32 3207.13 3411.3C3205.65 3413.64 3200.87 3421.41 3196.5 3428.54C3192.13 3435.68 3183.5 3449.66 3177.33 3459.62C3171.15 3469.58 3166.09 3478.51 3166.07 3479.47C3166.06 3480.45 3161.5 3489.01 3155.92 3498.5C3150.35 3508.01 3142.4 3523.12 3138.26 3532.09C3134.13 3541.06 3129.3 3550.24 3127.53 3552.49C3119.79 3562.32 3064.85 3678.43 3058.92 3697.53C3053.48 3715 3036.09 3757.29 3032.47 3761.84C3030.69 3764.09 3027.39 3771.42 3025.15 3778.15C3011.73 3818.42 3004.32 3838.63 3000.97 3844.06C2998.89 3847.45 2996.34 3854.49 2995.29 3859.73C2994.26 3864.96 2992.48 3870.46 2991.35 3871.96C2990.21 3873.46 2988.04 3878.96 2986.51 3884.2C2981.45 3901.69 2975.54 3918.08 2970.35 3929.06C2967.52 3935.03 2960.29 3956.45 2954.27 3976.64C2948.26 3996.83 2941.05 4018.37 2938.25 4024.52C2935.43 4030.66 2933.15 4037.74 2933.15 4040.23C2933.15 4042.74 2930.96 4051.78 2928.29 4060.33C2925.63 4068.88 2920.78 4085.06 2917.52 4096.27C2914.27 4107.49 2909.9 4120.68 2907.81 4125.6C2905.72 4130.51 2902.08 4145.19 2899.71 4158.22C2897.33 4171.26 2894.03 4189.26 2892.37 4198.23C2890.72 4207.21 2888 4217.01 2886.34 4220.03C2884.68 4223.05 2882.47 4230.39 2881.42 4236.34C2880.38 4242.3 2875.99 4260.64 2871.68 4277.09C2867.36 4293.54 2862.7 4314.33 2861.32 4323.3C2859.94 4332.27 2857.12 4343.89 2855.04 4349.13C2850.74 4359.91 2831.09 4447.24 2828.66 4466.36C2826.99 4479.41 2821.18 4490.6 2817.84 4487.17C2815.14 4484.4 2814.14 4333.84 2816.63 4305.63Z" fill="url(#paint3_linear_147_90)"/>
</g>
<path d="M1864.53 5139.58C1877.31 5064.5 1881.25 5027.39 1900.32 4978.31C1912.47 4947.01 1938.2 4894.02 1950.35 4875.28C1954.2 4869.31 1958.56 4862.52 1960.03 4860.17C1966.72 4849.52 2008.13 4796.93 2024.55 4778.25C2034.58 4766.84 2062.31 4739.27 2087.93 4715.24C2110.88 4693.72 2149.11 4663.94 2188.28 4637.07C2198.49 4630.06 2209.21 4622.26 2212.09 4619.72C2214.99 4617.18 2223.27 4611.72 2230.52 4607.58C2237.76 4603.46 2248.99 4596.15 2255.45 4591.34C2271.8 4579.2 2319.14 4549.03 2321.83 4549.03C2323.06 4549.03 2332.52 4543.58 2342.85 4536.91C2353.18 4530.24 2370.52 4520.18 2381.37 4514.54C2392.22 4508.91 2406.82 4500.78 2413.8 4496.5C2443.21 4478.46 2536.32 4431.07 2567.52 4418.26C2582.31 4412.19 2587.78 4410.99 2590.5 4413.23C2595.39 4417.28 2595.01 4421.28 2587.96 4439.95C2584.62 4448.84 2579.76 4462.59 2577.19 4470.51C2574.61 4478.43 2569.18 4493.73 2565.12 4504.53C2551.34 4541.16 2535.97 4594.87 2529.56 4628.86C2527.39 4640.39 2524.32 4655.1 2522.73 4661.58C2511.29 4708.4 2506.82 4813.18 2513.85 4869.68C2516.18 4888.4 2519.25 4908.43 2520.68 4914.18C2522.1 4919.94 2524.5 4932.31 2526.02 4941.67C2528.7 4958.36 2538.85 4992.9 2545.6 5008.41C2547.48 5012.73 2549.83 5019.51 2550.83 5023.49C2551.82 5027.46 2553.69 5031.36 2554.96 5032.15C2556.25 5032.93 2557.3 5035.64 2557.3 5038.16C2557.3 5042.48 2564.87 5059.8 2575.91 5080.75C2578.67 5085.98 2580.93 5091.89 2580.93 5093.88C2580.93 5101.86 2615.01 5160.63 2630.8 5179.86C2636.11 5186.34 2641.99 5194.58 2643.87 5198.18C2645.75 5201.79 2653.27 5212.38 2660.58 5221.74C2710.53 5285.75 2784.52 5359.22 2851.7 5411.5C2863.76 5420.89 2880.13 5433.64 2888.06 5439.85C2896 5446.06 2906.64 5453.97 2911.69 5457.41C2916.75 5460.85 2922.06 5465.05 2923.51 5466.74C2927.27 5471.14 2952.92 5488.54 2959.74 5491.31C2962.92 5492.61 2977.32 5501.32 2991.76 5510.68C3006.2 5520.05 3028.64 5533.7 3041.63 5541.03C3054.63 5548.35 3067.04 5555.41 3069.2 5556.72C3122.13 5588.74 3240.48 5648.2 3273.96 5659.6C3280.45 5661.82 3298.76 5669.15 3314.65 5675.9C3330.53 5682.65 3348.25 5689.76 3354.03 5691.71C3369.56 5696.98 3382.95 5701.98 3407.85 5711.83C3436.46 5723.16 3538.35 5756.18 3609.97 5777.34C3622.25 5780.97 3651.19 5788.33 3674.3 5793.72C3697.39 5799.1 3725.04 5805.83 3735.73 5808.66C3746.42 5811.49 3763.55 5814.78 3773.8 5815.97C3803.72 5819.44 3843.97 5826.4 3856.73 5830.3C3863.23 5832.3 3876.22 5834.68 3885.62 5835.61C3895 5836.54 3913.31 5838.91 3926.3 5840.89C3939.29 5842.85 3970.01 5846.88 3994.56 5849.84C4082.5 5867.15 4035.91 5857.83 4082.5 5867.15C4087.15 5868.93 4129.37 5876.47 4138.69 5895.11C4138.69 5904.43 4022.23 5908.72 3945.17 5930.15C3933.63 5933.37 3918.73 5928.2 3915.88 5930.15C3913.02 5932.11 3907.37 5933.71 3903.32 5933.71C3899.27 5933.71 3891.67 5935.5 3886.45 5937.67C3881.23 5939.84 3869.75 5943.42 3860.94 5945.61C3852.14 5947.79 3833.7 5952.96 3819.99 5957.11C3806.27 5961.24 3786.19 5966.46 3775.36 5968.7C3764.53 5970.93 3745.04 5975.24 3732.05 5978.25C3719.05 5981.27 3701.33 5985.38 3692.67 5987.38C3684.01 5989.39 3672.2 5992.21 3666.42 5993.65C3649.27 5997.91 3617.98 6003.94 3595.54 6007.29C3583.99 6009.03 3569.96 6012.03 3564.36 6013.96C3558.77 6015.89 3551.04 6017.48 3547.2 6017.48C3543.35 6017.48 3533.16 6019.33 3524.55 6021.59C3508.11 6025.91 3502.62 6026.71 3428.84 6035.67C3403.57 6038.73 3374.63 6042.9 3364.53 6044.91C3354.42 6046.94 3331.97 6049.32 3314.65 6050.22C3297.32 6051.12 3277.24 6052.94 3270.02 6054.27C3262.8 6055.61 3218.2 6058.07 3170.9 6059.76C3074.53 6063.18 2925.86 6059.6 2885.44 6052.88C2873.17 6050.85 2854.81 6049.11 2844.64 6049.03C2834.48 6048.95 2819.72 6047.28 2811.83 6045.32C2803.95 6043.36 2785.09 6040.35 2769.94 6038.62C2732.13 6034.33 2678.4 6023.98 2639.99 6013.58C2632.77 6011.63 2619.78 6008.68 2611.12 6007.02C2602.46 6005.36 2589.46 6002.41 2582.24 6000.46C2554.17 5992.87 2529.34 5985.47 2520.55 5982.09C2515.5 5980.13 2499.55 5975.41 2485.11 5971.58C2461.32 5965.28 2424.28 5945.84 2395.73 5932.39C2389.79 5929.6 2387.64 5932.39 2386.41 5932.39C2385.18 5932.39 2379.52 5928.8 2367.77 5923.07C2356.02 5917.35 2339.73 5908.83 2330.49 5904.43C2306.27 5892.91 2280.87 5873.76 2255.94 5857.83C2243.92 5850.14 2230.36 5840.62 2227.98 5839.19C2225.6 5837.75 2216.34 5834.83 2209.34 5829.87C2202.33 5824.92 2190.05 5817.13 2181.39 5811.23C2136.28 5780.48 2142.73 5772.95 2097.51 5727.35C2032.65 5661.94 1988.41 5594.46 1957.72 5531.02C1916.1 5444.99 1907.48 5426.21 1892.49 5363.26C1879.95 5310.56 1865.17 5314.73 1864.53 5232.78C1864.2 5188.88 1863.92 5143.19 1864.53 5139.58Z" fill="url(#paint4_linear_147_90)"/>
<g filter="url(#filter1_d_147_90)">
<path d="M1865.8 5131.11C1866.77 5116.18 1868.69 5102.21 1870.07 5100.07C1871.45 5097.93 1874.13 5086.94 1876.02 5075.64C1884.3 5026.16 1898.39 4978.15 1918.5 4930.91C1925.88 4913.55 1934.15 4914.37 1934.22 4932.48C1934.27 4942.5 1947.23 4989.37 1953.11 5000.7C1956.17 5006.61 1958.67 5013.01 1958.67 5014.9C1958.67 5019.9 1980.45 5073.37 1984.44 5078.17C1986.3 5080.41 1989.22 5086.42 1990.94 5091.51C1994.74 5102.81 2012.18 5134.31 2015.9 5136.61C2017.38 5137.52 2020.4 5142.6 2022.62 5147.9C2027.32 5159.11 2064.02 5215.51 2077.36 5232.01C2082.39 5238.23 2086.5 5244.27 2086.5 5245.41C2086.5 5246.55 2091.4 5253.29 2097.39 5260.37C2103.36 5267.45 2108.26 5274.12 2108.26 5275.2C2108.26 5287.81 2283.48 5466.87 2315.74 5487.22C2321.4 5490.78 2328.37 5496.05 2331.23 5498.9C2334.1 5501.76 2342.59 5508.32 2350.12 5513.49C2357.66 5518.67 2365.87 5524.94 2368.38 5527.45C2370.89 5529.96 2377.34 5534.9 2382.72 5538.43C2388.09 5541.97 2399.21 5549.78 2407.44 5555.81C2415.66 5561.82 2425.65 5568.57 2429.63 5570.8C2433.62 5573.03 2446.29 5581.59 2457.79 5589.84C2469.31 5598.08 2480.28 5604.82 2482.18 5604.82C2484.09 5604.82 2487.1 5606.57 2488.88 5608.72C2490.67 5610.86 2497.24 5615.26 2503.49 5618.5C2509.75 5621.75 2528.33 5631.45 2544.79 5640.06C2561.24 5648.69 2577.76 5656.64 2581.51 5657.74C2585.24 5658.86 2602.99 5666.82 2620.94 5675.46C2638.89 5684.09 2663.37 5694.23 2675.33 5698C2687.3 5701.77 2707.88 5709.23 2721.05 5714.57C2734.22 5719.91 2746.43 5724.27 2748.19 5724.27C2751.8 5724.27 2771.21 5731.54 2803.16 5744.87C2815.13 5749.86 2828.6 5754.73 2833.09 5755.69C2840.63 5757.31 2872.97 5767.4 2920.57 5783.03C2931.3 5786.55 2942.9 5789.42 2946.36 5789.42C2949.82 5789.42 2958.79 5791.76 2966.3 5794.62C2973.82 5797.47 2987.3 5801.83 2996.27 5804.32C3005.24 5806.79 3019.93 5811.15 3028.91 5814C3037.88 5816.85 3052.57 5819.92 3061.55 5820.82C3070.52 5821.71 3081.54 5823.62 3086.02 5825.06C3090.51 5826.5 3103.14 5828.82 3114.09 5830.23C3125.03 5831.63 3137.27 5834.59 3141.29 5836.8C3145.3 5839.01 3164.49 5843.32 3183.93 5846.37C3203.38 5849.44 3229.08 5853.84 3241.05 5856.16C3253.02 5858.47 3273.22 5861.38 3285.93 5862.6C3298.64 5863.83 3315.78 5866.71 3324 5869.01C3332.23 5871.29 3355.48 5874.52 3375.68 5876.16C3409.42 5878.9 3432.1 5881.36 3503.51 5890.03C3517.72 5891.76 3558.72 5894.17 3594.62 5895.41C3630.52 5896.63 3678.26 5899.65 3700.69 5902.12C3735.55 5905.96 3764.46 5906.43 3899.23 5905.29C4013.34 5904.33 4067.5 5902.83 4095.04 5899.86C4134.29 5895.62 4148.01 5896.98 4130.56 5903.39C4124.96 5905.24 4117.12 5908.44 4113.15 5910.51C4109.19 5912.57 4104.43 5914.28 4102.58 5914.28C4100.74 5914.29 4088.5 5917.81 4075.38 5922.1C4062.27 5926.39 4044.81 5931.44 4036.59 5933.32C4028.36 5935.2 4020.23 5937.82 4018.54 5939.15C4016.85 5940.5 4009.5 5943.2 4002.23 5945.17C3944.35 5960.81 3924.29 5965.88 3920.24 5965.89C3917.66 5965.9 3911.88 5967.9 3907.39 5970.33C3899.55 5974.58 3890.09 5976.67 3836.68 5985.91C3823.22 5988.24 3803.03 5992.56 3791.8 5995.49C3749.1 6006.69 3737.24 6009.32 3729.35 6009.32C3724.87 6009.32 3716.59 6011.05 3710.94 6013.17C3705.3 6015.3 3692.12 6017.79 3681.66 6018.71C3671.18 6019.63 3654.66 6022.24 3644.94 6024.5C3627.98 6028.46 3605.74 6032.5 3564.71 6039.11C3554.23 6040.79 3539.54 6043.34 3532.07 6044.77C3524.59 6046.2 3492.76 6049.73 3461.36 6052.6C3429.94 6055.46 3397.51 6059.04 3389.28 6060.56C3381.05 6062.07 3352.9 6064.7 3326.72 6066.4C3300.54 6068.11 3265.66 6070.55 3249.21 6071.83C3210.56 6074.84 3019.16 6074.78 2990.83 6071.76C2978.86 6070.48 2951.93 6068.07 2930.99 6066.39C2910.05 6064.72 2883.74 6061.62 2872.52 6059.51C2861.3 6057.4 2836.82 6054.37 2818.12 6052.8C2799.43 6051.23 2775.56 6048.21 2765.09 6046.09C2754.62 6043.96 2736.87 6040.38 2725.66 6038.12C2714.43 6035.87 2696.69 6031.97 2686.21 6029.47C2675.75 6026.96 2658 6023.28 2646.78 6021.27C2635.56 6019.26 2619.64 6015.65 2611.42 6013.24C2603.2 6010.82 2589.73 6007.02 2581.51 6004.78C2573.27 6002.53 2559.97 5998.19 2551.95 5995.11C2543.92 5992.05 2529.84 5987.95 2520.68 5986.02C2469.54 5971.54 2498.31 5980.86 2469.54 5970.56C2466.05 5968.43 2449.73 5961.48 2433.28 5955.12C2416.82 5948.76 2401.52 5942.46 2399.28 5941.12C2397.04 5939.76 2390.31 5936.39 2384.32 5933.62C2344.91 5915.35 2332.09 5908.85 2305.04 5893.44C2288.36 5883.93 2273.22 5874.36 2271.39 5872.16C2269.57 5869.95 2266.58 5868.15 2264.77 5868.15C2262.95 5868.15 2254.75 5863.57 2246.53 5857.97C2238.31 5852.38 2229.63 5846.57 2227.25 5845.07C2206.8 5832.27 2164.58 5802.6 2150.92 5791.43C2126.17 5771.2 2063.7 5707.41 2034.83 5672.89C2028.09 5664.84 2018.76 5653.88 2014.06 5648.51C2009.37 5643.15 1996.52 5625.01 1985.5 5608.21C1956.2 5563.51 1953.23 5558.62 1953.24 5555.09C1953.24 5552.03 1934.21 5511.38 1918.05 5479.95C1913.81 5471.74 1909.53 5461.13 1908.5 5456.38C1907.48 5451.63 1904.9 5446.29 1902.74 5444.51C1900.59 5442.73 1898.84 5439.26 1898.84 5436.77C1898.84 5434.29 1897.17 5426.2 1895.14 5418.78C1882.69 5373.55 1877.37 5352.15 1875.58 5340.19C1874.47 5332.75 1871.88 5322.66 1869.83 5317.77C1865.58 5307.61 1862.78 5177.82 1865.8 5131.11Z" fill="url(#paint5_linear_147_90)"/>
</g>
<path d="M4875.57 5751.61C4880.16 5750.69 4895.13 5749.95 4908.83 5749.95C4932.24 5749.95 4957.39 5747.09 5013.21 5738.08C5026.21 5735.99 5045.7 5733.01 5056.54 5731.46C5067.37 5729.92 5082.13 5727.04 5089.36 5725.09C5096.58 5723.14 5108.39 5720.71 5115.61 5719.7C5122.83 5718.7 5131.02 5716.69 5133.8 5715.24C5136.59 5713.8 5145.45 5711.11 5153.49 5709.28C5182.02 5702.79 5200.45 5697.75 5209.17 5694.08C5214.03 5692.03 5225.09 5687.76 5233.75 5684.58C5261.58 5674.38 5280.46 5666.19 5304.64 5653.8C5338.59 5636.4 5337.86 5636.83 5349.05 5628.23C5354.67 5623.92 5363.13 5618.03 5367.84 5615.14C5404.29 5592.88 5469.42 5524.21 5501.09 5474.62C5513.19 5455.69 5534.36 5415.61 5534.38 5411.61C5534.39 5409.82 5536.26 5404.83 5538.55 5400.5C5546.53 5385.38 5551.86 5368.66 5559.03 5336.29C5563 5318.35 5568.52 5294.68 5571.31 5283.72C5574.09 5272.74 5576.38 5258.02 5576.38 5250.99C5576.38 5243.97 5578.2 5228.2 5580.43 5215.97C5586.02 5185.19 5585.99 5077.11 5580.38 5045.82C5578.18 5033.59 5576.38 5016.68 5576.38 5008.25C5576.38 4999.82 5574.7 4986.27 5572.66 4978.15C5570.61 4970.03 5568.19 4956.9 5567.28 4948.98C5566.38 4941.06 5564.59 4929.29 5563.32 4922.81C5562.05 4916.32 5559.61 4901.6 5557.9 4890.08C5554.12 4864.55 5542.54 4815.2 5539.47 4811.43C5538.23 4809.92 5536.46 4803.44 5535.53 4797.03C5533.9 4785.8 5531.87 4778.49 5517.64 4733.03C5505.66 4694.76 5482.12 4630.39 5475.53 4617.86C5473.25 4613.54 5471.34 4608.24 5471.29 4606.08C5471.22 4603.92 5468.89 4597.44 5466.1 4591.68C5463.32 4585.93 5461 4580.37 5460.94 4579.35C5460.63 4572.69 5370.39 4385.28 5363.37 4376.69C5362.04 4375.05 5358.2 4368.57 5354.85 4362.29C5337.34 4329.44 5276.7 4233 5270.15 4227.59C5268.25 4226.03 5264.99 4221.47 5262.91 4217.48C5260.83 4213.49 5253.09 4202.42 5245.7 4192.86C5238.31 4183.31 5226.93 4167.44 5220.42 4157.59C5213.91 4147.74 5207.46 4138.32 5206.09 4136.66C5192.69 4120.29 5169.43 4089.59 5169.42 4088.22C5169.41 4087.27 5166.1 4082.96 5162.07 4078.65C5158.03 4074.33 5148.36 4062.55 5140.56 4052.47C5132.76 4042.39 5123.08 4030.82 5119.03 4026.74C5111.32 4019 5109.36 4011.88 5114.95 4011.93C5122.03 4011.99 5142.99 4019.63 5160.37 4028.48C5170.41 4033.58 5185.71 4040.95 5194.37 4044.85C5203.04 4048.74 5214.72 4054.81 5220.33 4058.34C5225.94 4061.87 5238.93 4069.18 5249.2 4074.57C5259.48 4079.96 5273.2 4087.4 5279.7 4091.1C5286.19 4094.8 5298.6 4101.58 5307.26 4106.15C5315.93 4110.73 5324.89 4116.13 5327.16 4118.16C5329.44 4120.18 5331.92 4121.83 5332.65 4121.83C5334.59 4121.83 5373 4145.15 5389.94 4156.59C5397.86 4161.95 5405.23 4166.34 5406.33 4166.34C5407.43 4166.34 5416.31 4171.99 5426.05 4178.88C5435.81 4185.79 5451.58 4195.76 5461.11 4201.04C5470.64 4206.32 5479.94 4212.46 5481.77 4214.66C5483.62 4216.87 5486.08 4218.68 5487.24 4218.68C5489.5 4218.68 5519.21 4238.47 5541.24 4254.64C5565.49 4272.45 5597.75 4295.83 5603.52 4299.79C5631.86 4319.23 5693.08 4366.59 5729.96 4397.62C5740.07 4406.13 5758.97 4421.93 5771.97 4432.75C5793.54 4450.7 5800.55 4467.41 5853.63 4515.76C5899.62 4557.66 6024.83 4688.7 6049.35 4720.8C6055.41 4728.71 6063.59 4734.67 6067.99 4739.44C6072.39 4744.21 6077.28 4747.76 6077.31 4748.76C6077.35 4749.75 6080.04 4760.2 6086.64 4767.4C6093.24 4774.59 6100.9 4788.88 6105.28 4795.36C6109.65 4801.83 6120.41 4809.67 6123.92 4813.99C6135.3 4828.02 6148.35 4850.82 6161.2 4869.91C6168.11 4880.17 6167.69 4876.68 6170.52 4879.23C6173.36 4881.79 6179.84 4896.84 6179.84 4897.87C6167.47 4897.87 6187.87 4927.16 6198.48 4944.47C6170.69 4937.87 6203.89 4955.91 6207.8 4963.11C6211.71 4970.31 6213.57 4985.31 6217.12 4991.07C6220.67 4996.83 6232.04 5011.12 6235.76 5019.03C6239.48 5026.95 6247.62 5037.06 6249.66 5040.67C6257.32 5054.17 6283.76 5099.5 6291.68 5121.55C6293.75 5127.32 6298.9 5135.66 6301 5140.19C6303.1 5144.73 6301 5147.62 6301 5149.51C6301 5152.52 6309.95 5186.85 6319.64 5214.75C6326.2 5233.64 6336.79 5263.97 6347.6 5326.59C6354.69 5367.63 6346.2 5492.23 6338.28 5512.99C6336.9 5516.61 6340.66 5536.37 6338.28 5550.27C6335.9 5564.19 6332.46 5577.37 6328.96 5587.55C6325.45 5597.74 6312.23 5609.04 6310.32 5615.51C6304.02 5636.82 6299.4 5664.99 6282.36 5699.39C6276.75 5710.72 6273.04 5716.5 6273.04 5718.03C6273.04 5719.57 6213.78 5700.5 6254.4 5727.18C6213.78 5709.82 6244.14 5723 6235.76 5736.67C6220.59 5761.45 6205.02 5775.3 6189.16 5792.59C6184.56 5797.61 6171.22 5818.36 6170.52 5820.55C6168.6 5826.53 6127.78 5886.7 6105.28 5904.43C6087.57 5918.4 6090.13 5923.99 6049.35 5951.03C6042.17 5955.8 6042.51 5941.71 6040.03 5941.71C6037.56 5941.71 6012.94 5968.27 6012.07 5969.67C6010.47 5972.25 6012.97 5983.9 5974.79 6001.31C5941.71 6016.4 5893.82 6042.69 5844.31 6053.55C5774.46 6068.87 5611.28 6085.04 5535.68 6071.52C5505.1 6066.05 5467.44 6057.72 5451.67 6052.93C5444.45 6050.74 5428.5 6046.33 5416.22 6043.14C5394.23 6037.41 5373.85 6030.57 5355.84 6022.89C5350.78 6020.73 5341.33 6017.44 5334.83 6015.58C5318.96 6011.02 5300.38 6004.37 5294.99 6001.31C5292.57 5999.94 5276.61 5993.38 5259.54 5986.75C5215.16 5969.5 5086.13 5904.33 5047.34 5879.57C5040.12 5874.96 5026.5 5866.58 5017.06 5860.95C5007.62 5855.33 4997.58 5849.31 4994.74 5847.57C4983.18 5840.5 4923.14 5806.16 4912.13 5800.32C4905.63 5796.88 4893.23 5788.46 4884.57 5781.62C4872.38 5771.99 4868.64 5767.39 4868.03 5761.23C4867.32 5754.15 4868.14 5753.1 4875.57 5751.61Z" fill="url(#paint6_linear_147_90)"/>
<g filter="url(#filter2_d_147_90)">
<path d="M5146.85 4021.8C5151.73 4021.8 5180.6 4033.05 5184.38 4036.42C5186.65 4038.46 5189.79 4040.12 5191.33 4040.12C5192.88 4040.12 5200.46 4044.38 5208.2 4049.6C5215.93 4054.82 5225.79 4060.29 5230.12 4061.76C5234.45 4063.23 5239.29 4065.44 5240.87 4066.66C5244.35 4069.35 5273.27 4085.32 5287.88 4092.63C5293.65 4095.53 5300.75 4099.32 5303.66 4101.06C5341.55 4123.94 5353.02 4130.83 5356.89 4133.04C5359.41 4134.48 5365.64 4138.86 5370.73 4142.75C5375.83 4146.66 5383.49 4151.39 5387.76 4153.26C5392.02 4155.12 5405.69 4163.42 5418.13 4171.68C5430.56 4179.94 5441.89 4186.7 5443.29 4186.7C5444.7 4186.7 5452.59 4191.41 5460.84 4197.17C5469.09 4202.93 5476.21 4207.65 5476.68 4207.65C5478.28 4207.65 5513.65 4231.8 5523.86 4239.85C5535.83 4249.29 5546.42 4257.09 5560.92 4267.1C5566.7 4271.08 5581.74 4282.38 5594.35 4292.2C5606.97 4302.03 5622.49 4313.82 5628.85 4318.41C5656.63 4338.44 5711.51 4380.53 5712.32 4382.41C5712.8 4383.55 5719.72 4389.74 5727.7 4396.18C5745.09 4410.22 5789.58 4449.19 5834.96 4490.14C5872.2 4523.74 5983.08 4634.55 5997.55 4652.62C6002.73 4659.1 6011.24 4668.52 6016.44 4673.57C6021.64 4678.6 6030.51 4688.62 6036.15 4695.82C6041.8 4703.02 6048.49 4711.26 6051.02 4714.14C6058.99 4723.2 6088.48 4760.61 6100.27 4776.62C6106.5 4785.07 6113.27 4793.91 6115.32 4796.25C6120.96 4802.67 6158.13 4853.36 6170.05 4870.86C6187.12 4895.91 6189.51 4899.69 6192.33 4906.11C6193.81 4909.49 6199.57 4920.09 6205.11 4929.68C6240.73 4991.18 6270.37 5049.21 6284.22 5084.52C6289.02 5096.76 6293.94 5107.89 6295.15 5109.26C6296.36 5110.63 6297.36 5113.58 6297.36 5115.84C6297.36 5118.1 6299.72 5124.33 6302.61 5129.7C6305.49 5135.07 6307.87 5141.76 6307.87 5144.57C6307.87 5147.37 6310.69 5157.68 6314.14 5167.48C6317.59 5177.27 6322.43 5192.95 6324.88 5202.31C6327.35 5211.66 6331.49 5226.39 6334.1 5235.03C6336.71 5243.67 6339.57 5258.98 6340.45 5269.06C6341.34 5279.14 6343.92 5295.04 6346.2 5304.39C6349.23 5316.85 6350.71 5340.73 6351.71 5393.39C6353.01 5462.12 6352.75 5467.44 6346.01 5511.18C6339.62 5552.6 6333.68 5579.34 6325.92 5601.49C6324.4 5605.8 6321.57 5614.64 6319.62 5621.11C6314.37 5638.53 6307.4 5658.53 6305 5663C6303.25 5666.27 6291.74 5689.76 6276.8 5720.58C6273.11 5728.19 6267.64 5737.07 6247.72 5767.7C6212.33 5822.16 6153.41 5885.99 6107.02 5920.13C6105.57 5921.19 6100.68 5925.02 6096.14 5928.63C6076.16 5944.56 6045.37 5965.38 6030.87 5972.74C6022.21 5977.14 6013.36 5982.18 6011.18 5983.92C6004.32 5989.46 5968.18 6007.57 5959.99 6009.6C5955.66 6010.66 5950.34 6013.09 5948.18 6014.98C5946.01 6016.87 5937.74 6021.05 5929.79 6024.28C5921.85 6027.51 5910.55 6032.35 5904.68 6035.04C5898.81 6037.73 5891.97 6039.92 5889.46 6039.92C5886.95 6039.92 5881.59 6044.23 5877.69 6043.64C5868.21 6048.53 5839.17 6058.25 5834.05 6058.25C5828.53 6058.25 5828.99 6055.27 5836.1 6044.83C5839.43 6039.93 5845.64 6029.49 5849.88 6021.61C5854.12 6013.73 5858.86 6006.09 5860.41 6004.63C5864.68 6000.58 5872.31 5988.05 5881.67 5969.7C5886.31 5960.6 5891.22 5951.76 5892.58 5950.07C5898.31 5942.97 5928.35 5880 5940.26 5850.16C5944.86 5838.64 5951.47 5823.31 5954.96 5816.09C5958.45 5808.86 5961.3 5801.55 5961.3 5799.82C5961.3 5798.08 5962.97 5792.8 5965.02 5788.08C5971.14 5773.92 5979.69 5745.49 5979.69 5739.25C5979.69 5736.04 5981.39 5730.11 5983.49 5726.08C5986.92 5719.46 5994.46 5682.8 6001.03 5640.75C6002.39 5632.11 6004.73 5619.15 6006.25 5611.95C6013.71 5576.53 6013.74 5391.65 6006.28 5351.51C6004.81 5343.59 6000.56 5317.09 5996.83 5292.61C5993.1 5268.15 5988.1 5242.23 5985.72 5235.03C5983.34 5227.83 5980.56 5216.64 5979.55 5210.16C5976.7 5192 5956.78 5121.49 5953.27 5117.14C5952.07 5115.64 5949.91 5109.75 5948.49 5104.05C5943.77 5085.09 5925.87 5036.19 5921.24 5029.63C5918.72 5026.07 5916.67 5020.35 5916.67 5016.94C5916.67 5013.52 5914.96 5007.6 5912.87 5003.78C5910.79 4999.96 5907.11 4992.13 5904.72 4986.36C5902.32 4980.6 5897.11 4968.82 5893.14 4960.19C5881.08 4933.96 5877.29 4924.8 5877.29 4921.89C5877.29 4917.89 5804.65 4774.4 5798.64 4766.49C5797.54 4765.05 5789.8 4750.91 5781.43 4735.08C5773.06 4719.24 5763.44 4701.89 5760.06 4696.52C5756.66 4691.15 5753.89 4685.64 5753.89 4684.29C5753.89 4682.93 5751.22 4678.49 5747.95 4674.42C5744.68 4670.35 5739.12 4661.72 5735.6 4655.25C5732.08 4648.77 5726.49 4639.47 5723.17 4634.59C5719.85 4629.71 5717.13 4624.7 5717.13 4623.46C5717.13 4616.19 5633.01 4502.75 5589.2 4450.97C5516.59 4365.12 5520.19 4368.95 5442.65 4295.33C5413.85 4267.98 5382 4237.18 5371.89 4226.88C5361.78 4216.58 5345.83 4201.51 5336.45 4193.4C5317.27 4176.83 5300.53 4162.28 5277.37 4142.02C5268.71 4134.45 5254.07 4121.67 5244.83 4113.63C5235.59 4105.6 5220.83 4092.37 5212.01 4084.25C5203.2 4076.14 5184.47 4059.23 5170.39 4046.66C5144.96 4023.98 5142.89 4021.8 5146.85 4021.8Z" fill="url(#paint7_linear_147_90)"/>
</g>
<path d="M4104.52 3721.67C4108.78 3721.67 4133.51 3744.91 4146.29 3760.92C4149.16 3764.53 4158.23 3774.53 4166.44 3783.17C4174.65 3791.81 4193.31 3811.84 4207.89 3827.67C4249.47 3872.8 4541.46 4161.82 4599.72 4215.5C4656.63 4267.93 4716.42 4324.11 4721.38 4329.81C4723.69 4332.47 4735.03 4342.92 4746.57 4353.06C4758.12 4363.2 4775.25 4378.79 4784.64 4387.7C4794.03 4396.61 4819.42 4419.67 4841.09 4438.95C4862.74 4458.22 4886.37 4479.51 4893.59 4486.25C4900.81 4492.98 4910.65 4501.76 4915.46 4505.73C4920.25 4509.71 4927.43 4516.02 4931.4 4519.76C4935.36 4523.5 4947.86 4534.22 4959.18 4543.58C4970.48 4552.93 4987.07 4567.07 4996.02 4574.99C5004.99 4582.91 5018.68 4594.82 5026.46 4601.48C5034.26 4608.14 5051.85 4623.25 5065.57 4635.05C5108.57 4672.06 5116.53 4678.63 5124.63 4683.78C5134.17 4689.84 5157.52 4707.76 5171.95 4720.08C5177.76 4725.05 5187.14 4732.23 5192.8 4736.07C5198.47 4739.9 5206.77 4746.49 5211.26 4750.71C5219.03 4758.02 5244.12 4776.93 5304.9 4821.32C5330.79 4840.24 5332.4 4841.97 5336.71 4855.58C5341.72 4871.45 5342.63 4901.1 5338.79 4923.34C5337.43 4931.13 5335.01 4945.76 5333.39 4955.84C5330.15 4976.21 5324.15 4998.86 5318.86 5010.8C5316.95 5015.13 5309.77 5031.61 5302.91 5047.45C5296.05 5063.28 5289.07 5078.02 5287.4 5080.17C5285.73 5082.33 5278.59 5094.11 5271.55 5106.34C5264.5 5118.59 5254.55 5134.12 5249.45 5140.87C5244.34 5147.63 5236.02 5158.74 5230.97 5165.58C5213.88 5188.69 5174.25 5230.56 5148.06 5253.17C5122.67 5275.09 5077.27 5310.52 5074.57 5310.52C5073.82 5310.52 5067.06 5315.03 5059.54 5320.53C5044.43 5331.61 5028.53 5341.39 5004.2 5354.57C4995.35 5359.36 4986.34 5364.81 4984.18 5366.67C4977.65 5372.24 4909.49 5407.55 4868.66 5426.5C4853.52 5433.53 4836.87 5439.84 4821.4 5444.44C4816.34 5445.94 4811.02 5448.09 4809.58 5449.22C4805.37 5452.51 4774.69 5464.13 4750.51 5471.6C4738.23 5475.39 4722.66 5480.74 4715.9 5483.5C4709.13 5486.25 4701.09 5488.51 4698.04 5488.51C4694.98 5488.51 4689.3 5490.11 4685.4 5492.06C4681.5 5494.02 4672.41 5496.35 4665.18 5497.25C4657.96 5498.15 4643.2 5501.18 4632.37 5503.99C4621.53 5506.79 4600.86 5511.62 4586.42 5514.7C4571.98 5517.78 4556.28 5521.99 4551.54 5524.04C4546.8 5526.09 4537.94 5527.78 4531.85 5527.79C4525.77 5527.8 4506.63 5530.74 4489.33 5534.34C4472.04 5537.92 4453.13 5540.88 4447.33 5540.9C4441.52 5540.92 4429.68 5542.56 4421.02 5544.54C4412.35 5546.53 4397.22 5548.96 4387.4 5549.96C4377.57 5550.96 4365.76 5552.94 4361.14 5554.35C4356.53 5555.77 4335.03 5557.95 4313.37 5559.19C4141.49 5568.99 4112.54 5570.16 4073.15 5568.91C3997.29 5566.53 3862.28 5559.04 3848.67 5556.46C3841.46 5555.09 3824.32 5552.24 3810.61 5550.12C3796.88 5548 3781.53 5545.04 3776.49 5543.56C3771.44 5542.08 3763.03 5540.86 3757.8 5540.86C3752.56 5540.86 3734.02 5537.91 3716.6 5534.32C3699.17 5530.71 3680.19 5527.77 3674.42 5527.77C3668.65 5527.77 3660.59 5526.44 3656.53 5524.82C3648.91 5521.79 3627.53 5516.34 3604.51 5511.56C3597.29 5510.06 3583.7 5506.71 3574.32 5504.09C3564.92 5501.49 3551.34 5498.61 3544.12 5497.69C3536.9 5496.77 3526.86 5494.45 3521.8 5492.54C3516.76 5490.62 3494.89 5483.5 3473.23 5476.71C3435.38 5464.85 3429.44 5462.74 3408.79 5453.85C3403.66 5451.63 3391.26 5446.69 3381.22 5442.87C3371.18 5439.04 3352.21 5430.66 3339.07 5424.24C3325.93 5417.84 3314.08 5412.6 3312.74 5412.6C3310.37 5412.6 3300.97 5407.87 3257.95 5385.09C3199.89 5354.33 3101.55 5291.04 3082.48 5272.16C3079.36 5269.05 3066.08 5256.7 3052.99 5244.67C3028.18 5221.9 2969.94 5160.54 2968.08 5155.22C2967.49 5153.53 2961 5143.85 2953.64 5133.7C2946.29 5123.55 2938.59 5112.36 2936.52 5108.83C2928.65 5095.36 2907.49 5051.12 2905.9 5044.83C2904.99 5041.2 2903.2 5037.6 2901.91 5036.8C2900.63 5036.01 2899.57 5033.61 2899.57 5031.46C2899.57 5029.31 2896.2 5018.48 2892.06 5007.4C2879.35 4973.33 2878.43 4969.89 2873.2 4937.51C2867.78 4903.91 2867.1 4878.87 2871.12 4860.96C2874.36 4846.57 2881.66 4839.89 2956.02 4783.43C2977.68 4766.99 2997.77 4751.61 3000.65 4749.28C3011.4 4740.6 3051.4 4709.39 3066.37 4698.01C3074.88 4691.52 3083.74 4684.39 3086.05 4682.14C3088.36 4679.89 3099.62 4670.88 3111.08 4662.11C3122.55 4653.34 3137.04 4641.34 3143.3 4635.44C3149.57 4629.55 3155.65 4624.72 3156.83 4624.72C3158 4624.72 3164.74 4619.12 3171.79 4612.28C3178.84 4605.45 3189.3 4596.39 3195.02 4592.17C3200.76 4587.94 3215.49 4575.48 3227.75 4564.47C3240.02 4553.45 3253.51 4541.6 3257.72 4538.12C3268.85 4528.93 3290.85 4510.08 3299.96 4501.96C3304.28 4498.08 3317.28 4486.79 3328.83 4476.86C3340.38 4466.92 3352.87 4455.79 3356.59 4452.11C3360.3 4448.42 3372.53 4437.17 3383.77 4427.09C3395.02 4417.02 3408.52 4404.51 3413.78 4399.31C3419.05 4394.12 3440.48 4374.17 3461.42 4354.98C3509.65 4310.77 3523.75 4297.45 3558.24 4263.49C3573.59 4248.38 3602.69 4220.56 3622.9 4201.67C3661.67 4165.43 3929.38 3899.61 4007.58 3819.71C4032.89 3793.86 4059.42 3765.63 4066.56 3757.01C4084.74 3734.97 4099.04 3721.67 4104.52 3721.67ZM3785.88 4991.07C3774.83 4991.07 3765.88 5000.03 3765.88 5011.07V5250.67C3765.88 5261.72 3774.83 5270.67 3785.88 5270.67H4044.13C4055.17 5270.67 4064.13 5261.72 4064.13 5250.67V4991.07H3785.88ZM4138.69 4991.07V5250.67C4138.69 5261.72 4147.64 5270.67 4158.69 5270.67H4416.94C4427.98 5270.67 4436.94 5261.72 4436.94 5250.67V5011.07C4436.94 5000.03 4427.98 4991.07 4416.94 4991.07H4138.69ZM3785.88 4655.55C3774.83 4655.55 3765.88 4664.51 3765.88 4675.55V4915.15C3765.88 4926.2 3774.83 4935.15 3785.88 4935.15H4064.13V4675.55C4064.13 4664.51 4055.17 4655.55 4044.13 4655.55H3785.88ZM4158.69 4655.55C4147.64 4655.55 4138.69 4664.51 4138.69 4675.55V4935.15H4416.94C4427.98 4935.15 4436.94 4926.2 4436.94 4915.15V4675.55C4436.94 4664.51 4427.98 4655.55 4416.94 4655.55H4158.69Z" fill="url(#paint8_linear_147_90)"/>
<defs>
<filter id="filter0_d_147_90" x="2795.21" y="2123.16" width="1947.21" height="2388.64" filterUnits="userSpaceOnUse" color-interpolation-filters="sRGB">
<feFlood flood-opacity="0" result="BackgroundImageFix"/>
<feColorMatrix in="SourceAlpha" type="matrix" values="0 0 0 0 0 0 0 0 0 0 0 0 0 0 0 0 0 0 127 0" result="hardAlpha"/>
<feOffset dy="4"/>
<feGaussianBlur stdDeviation="10"/>
<feComposite in2="hardAlpha" operator="out"/>
<feColorMatrix type="matrix" values="0 0 0 0 0.0313726 0 0 0 0 0.584314 0 0 0 0 0.65098 0 0 0 0.5 0"/>
<feBlend mode="normal" in2="BackgroundImageFix" result="effect1_dropShadow_147_90"/>
<feBlend mode="normal" in="SourceGraphic" in2="effect1_dropShadow_147_90" result="shape"/>
</filter>
<filter id="filter1_d_147_90" x="1848.53" y="4894.38" width="2313.48" height="1195.68" filterUnits="userSpaceOnUse" color-interpolation-filters="sRGB">
<feFlood flood-opacity="0" result="BackgroundImageFix"/>
<feColorMatrix in="SourceAlpha" type="matrix" values="0 0 0 0 0 0 0 0 0 0 0 0 0 0 0 0 0 0 127 0" result="hardAlpha"/>
<feOffset dx="4" dy="-4"/>
<feGaussianBlur stdDeviation="10"/>
<feComposite in2="hardAlpha" operator="out"/>
<feColorMatrix type="matrix" values="0 0 0 0 0.0313726 0 0 0 0 0.584314 0 0 0 0 0.65098 0 0 0 0.5 0"/>
<feBlend mode="normal" in2="BackgroundImageFix" result="effect1_dropShadow_147_90"/>
<feBlend mode="normal" in="SourceGraphic" in2="effect1_dropShadow_147_90" result="shape"/>
</filter>
<filter id="filter2_d_147_90" x="5115.28" y="4001.8" width="1247.04" height="2076.45" filterUnits="userSpaceOnUse" color-interpolation-filters="sRGB">
<feFlood flood-opacity="0" result="BackgroundImageFix"/>
<feColorMatrix in="SourceAlpha" type="matrix" values="0 0 0 0 0 0 0 0 0 0 0 0 0 0 0 0 0 0 127 0" result="hardAlpha"/>
<feOffset dx="-10"/>
<feGaussianBlur stdDeviation="10"/>
<feComposite in2="hardAlpha" operator="out"/>
<feColorMatrix type="matrix" values="0 0 0 0 0.0313726 0 0 0 0 0.584314 0 0 0 0 0.65098 0 0 0 0.5 0"/>
<feBlend mode="normal" in2="BackgroundImageFix" result="effect1_dropShadow_147_90"/>
<feBlend mode="normal" in="SourceGraphic" in2="effect1_dropShadow_147_90" result="shape"/>
</filter>
<linearGradient id="paint0_linear_147_90" x1="5053.07" y1="3467.45" x2="5203.07" y2="3519.48" gradientUnits="userSpaceOnUse">
<stop stop-color="#0CA2B1"/>
<stop offset="1" stop-color="#087489"/>
</linearGradient>
<linearGradient id="paint1_linear_147_90" x1="4101.56" y1="3198.48" x2="4407.11" y2="3553.96" gradientUnits="userSpaceOnUse">
<stop stop-color="#0CA2B1"/>
<stop offset="1" stop-color="#087489"/>
</linearGradient>
<linearGradient id="paint2_linear_147_90" x1="4884.31" y1="2530.6" x2="2899.15" y2="4301.46" gradientUnits="userSpaceOnUse">
<stop stop-color="#0895A6"/>
<stop offset="1" stop-color="#09BFC0"/>
</linearGradient>
<linearGradient id="paint3_linear_147_90" x1="4418.3" y1="2092.56" x2="2815.28" y2="4329.41" gradientUnits="userSpaceOnUse">
<stop stop-color="#09BFC0"/>
<stop offset="1" stop-color="#48D9CA"/>
</linearGradient>
<linearGradient id="paint4_linear_147_90" x1="2255.99" y1="4599.64" x2="4101.37" y2="5913.81" gradientUnits="userSpaceOnUse">
<stop stop-color="#088291"/>
<stop offset="1" stop-color="#48D9CA"/>
</linearGradient>
<linearGradient id="paint5_linear_147_90" x1="1721.93" y1="4918.43" x2="3328.73" y2="6169.22" gradientUnits="userSpaceOnUse">
<stop stop-color="#0895A6"/>
<stop offset="1" stop-color="#48D9CA"/>
</linearGradient>
<linearGradient id="paint6_linear_147_90" x1="5117.32" y1="4003.16" x2="4968.21" y2="5811.23" gradientUnits="userSpaceOnUse">
<stop offset="0.269388" stop-color="#09BFC0"/>
<stop offset="1" stop-color="#088291"/>
</linearGradient>
<linearGradient id="paint7_linear_147_90" x1="5313.05" y1="4087.04" x2="5862.91" y2="6081.52" gradientUnits="userSpaceOnUse">
<stop stop-color="#48D9CA"/>
<stop offset="1" stop-color="#09BFC0"/>
</linearGradient>
<linearGradient id="paint8_linear_147_90" x1="3048.21" y1="4273.44" x2="5331.68" y2="4860.64" gradientUnits="userSpaceOnUse">
<stop stop-color="#09BFC0"/>
<stop offset="0.5" stop-color="#0895A6"/>
<stop offset="1" stop-color="#088291"/>
</linearGradient>
</defs>
</svg>
