<svg width="11261" height="6959" viewBox="0 0 11261 6959" fill="none" xmlns="http://www.w3.org/2000/svg">
<path d="M2852.49 3241.76C2853.73 3240.52 2855.82 3239.5 2857.13 3239.5C2862.11 3239.5 2897.96 3227.03 2908.02 3221.8C2913.8 3218.79 2920.79 3214.11 2923.56 3211.38C2928.5 3206.5 2937.64 3193.96 2937.66 3192.04C2937.66 3191.5 2938.65 3189.17 2939.85 3186.87C2943.64 3179.64 2952.76 3154.54 2954.41 3146.82C2955.85 3140.12 2958.46 3135.59 2960.9 3135.59C2963.57 3135.59 2967.15 3142.67 2968.6 3150.82C2970.06 3159.05 2979.25 3184.48 2981.83 3187.44C2982.9 3188.66 2984.93 3192.18 2986.34 3195.27C2989.62 3202.42 3002.94 3215.43 3011.01 3219.36C3014.43 3221.02 3019.44 3223.45 3022.16 3224.76C3024.87 3226.07 3033.11 3229.02 3040.46 3231.3C3047.82 3233.59 3055.84 3236.38 3058.29 3237.49C3060.72 3238.6 3063.76 3239.5 3065.02 3239.5C3067.83 3239.5 3069.54 3243.38 3067.58 3245.33C3066.8 3246.11 3063.39 3247.34 3060 3248.07C3056.62 3248.79 3052.58 3249.96 3051.03 3250.67C3049.48 3251.37 3041.87 3253.91 3034.13 3256.32C3004.97 3265.38 2991.79 3275.06 2982.44 3294.27C2977.08 3305.28 2968.64 3330.98 2968.64 3336.27C2968.64 3339.97 2965.44 3346.43 2962.36 3348.98C2959.34 3351.48 2955.38 3347.92 2953.38 3340.88C2951.07 3332.77 2947.39 3322.07 2945.24 3317.23C2944.16 3314.79 2943.28 3312.32 2943.28 3311.72C2943.28 3310.25 2936.92 3294.49 2934.26 3289.38C2930.45 3282.07 2917.87 3270.63 2908.26 3265.75C2903.12 3263.14 2892.26 3258.94 2884.12 3256.43C2875.99 3253.92 2866.62 3250.98 2863.3 3249.9C2859.98 3248.82 2856.42 3247.93 2855.38 3247.93C2854.34 3247.93 2852.75 3247.05 2851.86 3245.97C2850.6 3244.46 2850.74 3243.5 2852.49 3241.76Z" fill="url(#paint0_linear_145_46)"/>
<path d="M2355.21 3084.27C2357.9 3083.15 2360.9 3082.22 2361.9 3082.2C2363.49 3082.18 2369.36 3080.16 2388.81 3072.94C2413.3 3063.85 2427.68 3049.56 2435.29 3026.76C2437.35 3020.59 2440.8 3010.21 2442.96 3003.7C2448.84 2985.96 2449.26 2986.18 2457.31 3011.32C2463.39 3030.26 2473.54 3050.36 2479.97 3056.14C2485.87 3061.46 2500.44 3070.27 2507.93 3073.03C2510.72 3074.06 2517.12 3076.51 2522.15 3078.47C2527.19 3080.43 2535.11 3083.19 2539.76 3084.6C2551.68 3088.19 2550.94 3090.56 2536.74 3094.28C2530.44 3095.93 2522.47 3098.64 2519.04 3100.29C2515.62 3101.94 2512.45 3103.3 2511.99 3103.3C2511.54 3103.3 2505.76 3105.81 2499.15 3108.89C2482.96 3116.41 2473.82 3125.38 2466.23 3141.21C2460.7 3152.74 2454.31 3170.77 2452.43 3180.16C2449.87 3192.94 2444.96 3185.46 2435.63 3154.55C2429.49 3134.23 2422.98 3123.29 2411.99 3114.84C2407.76 3111.58 2403.81 3108.91 2403.22 3108.91C2402.64 3108.91 2400.16 3108 2397.72 3106.88C2391.02 3103.82 2367.45 3094.87 2366.11 3094.87C2365.45 3094.87 2361.64 3093.89 2357.62 3092.71C2348.98 3090.15 2348.14 3087.21 2355.21 3084.27Z" fill="url(#paint1_linear_145_46)"/>
<path d="M1761.62 3577.22C1762.15 3563.32 1763.32 3545.31 1764.23 3537.2C1765.13 3529.1 1766.83 3510.45 1767.99 3495.78C1771.22 3454.94 1772.84 3439.17 1774.99 3427.67C1776.07 3421.88 1777.32 3412.4 1777.78 3406.61C1778.23 3400.82 1783.1 3389.17 1784.2 3382.98C1785.29 3376.81 1787.17 3362.66 1789.2 3347.99C1791.23 3333.31 1793.14 3321.07 1794.2 3317.99C1795.25 3314.9 1798.72 3306.85 1799.2 3302.99C1799.67 3299.12 1803.12 3292.62 1804.2 3287.99C1805.28 3283.35 1807.18 3269.18 1809.2 3257.99C1811.21 3246.78 1813.1 3236.46 1814.2 3232.99C1815.29 3229.51 1817.55 3216.1 1819.2 3207.99C1820.84 3199.88 1821.52 3192.62 1822.96 3187.99C1824.39 3183.35 1831 3177.29 1831.53 3174.2C1832.07 3171.12 1830.81 3166.28 1831.53 3164.88C1832.26 3163.48 1836.47 3157.4 1839.2 3147.99C1846.43 3123.02 1853.51 3092.02 1859.2 3077.99C1859.97 3076.06 1863.62 3070.7 1864.2 3067.99C1864.77 3065.29 1863.49 3063.86 1864.2 3062.99C1864.9 3062.11 1866.42 3055.99 1869.2 3047.99C1878.01 3022.62 1880.34 3016.6 1884.2 3007.99C1886.27 3003.36 1892.27 2998.01 1894.2 2992.99C1896.12 2987.97 1897.37 2976.85 1899.2 2972.99C1901.02 2969.13 1902.25 2963.4 1904.2 2957.99C1908.44 2946.22 1911.73 2943.96 1919.2 2927.99C1934.7 2894.83 1958.21 2852.98 1964.2 2842.99C1966.47 2839.2 1971.72 2827.41 1974.2 2822.99C1976.67 2818.57 1981.38 2812.91 1984.2 2807.99C1987.01 2803.07 1990.93 2794.17 1994.2 2787.99C1997.46 2781.81 1998.11 2774.22 1999.2 2772.99C2000.27 2771.78 2004.2 2768.55 2004.2 2767.99C2004.2 2767.43 2005.85 2764.54 2008.73 2760.14C2011.61 2755.74 2013.4 2754.32 2014.2 2752.99C2018.79 2745.39 2046.4 2706.01 2049.2 2702.99C2051.03 2701.02 2059.2 2693.63 2059.2 2692.99C2059.2 2691.01 2085.47 2653.98 2099.2 2638C2102.18 2634.52 2113.1 2624.3 2114.2 2623C2132.77 2601.07 2163.06 2566.28 2179.2 2553C2184.23 2548.86 2193 2548.11 2199.2 2543C2239.42 2509.79 2285.08 2471.37 2326.4 2455.39C2333.75 2452.54 2341.66 2449.31 2343.98 2448.2C2352.95 2443.92 2381.53 2435.77 2398.21 2432.75C2400.92 2432.25 2405.67 2431 2408.77 2429.95C2411.87 2428.9 2419.79 2427.68 2426.37 2427.24C2432.96 2426.8 2445.32 2425.8 2453.84 2425.02C2471.51 2423.4 2518.84 2426.47 2531.31 2430.05C2535.18 2431.16 2543.1 2433.04 2548.91 2434.23C2567.94 2438.11 2588.13 2443.91 2597.5 2448.17C2599.82 2449.23 2605.92 2451.66 2611.03 2453.58C2616.14 2455.49 2621.54 2457.7 2623 2458.48C2624.47 2459.28 2635.5 2464.72 2647.51 2470.59C2659.51 2476.46 2671.23 2482.5 2673.56 2484.01C2675.89 2485.51 2679.68 2487.8 2682.01 2489.09C2689.53 2493.28 2725.02 2520.66 2735.34 2530.23C2753.11 2546.7 2775.54 2571.02 2783.42 2582.32C2786.38 2586.57 2790.29 2592 2792.1 2594.38C2793.91 2596.78 2795.39 2599.14 2795.39 2599.65C2795.39 2600.15 2797.45 2603.57 2799.97 2607.24C2802.48 2610.91 2805.33 2615.18 2806.28 2616.72C2809.31 2621.63 2827.79 2658.69 2827.79 2659.86C2827.79 2660.48 2829.03 2663.66 2830.54 2666.94C2833.5 2673.35 2836.93 2682.56 2839.29 2690.44C2840.09 2693.15 2841.27 2695.99 2841.89 2696.77C2842.51 2697.53 2843.64 2701.33 2844.38 2705.19C2845.12 2709.05 2847.15 2717.9 2848.89 2724.85C2857.47 2759.15 2858.31 2763.74 2861.8 2795.06C2865.94 2832.25 2865.93 2888.88 2861.79 2928.46C2858.97 2955.42 2858.1 2961.39 2853.8 2983.23C2852.73 2988.63 2851.26 2996.22 2850.53 3000.08C2848.58 3010.33 2844.89 3027.77 2841.62 3042.21C2838.73 3054.97 2837.96 3057.77 2831.41 3079.51C2829.42 3086.12 2827.79 3092.54 2827.79 3093.79C2827.79 3096.63 2821.1 3104.7 2818.75 3104.7C2816.35 3104.7 2811.88 3099.47 2808.55 3092.76C2795.25 3065.98 2782.79 3043.02 2776.02 3032.85C2762.59 3012.64 2760.37 3009.5 2757.67 3006.84C2756.25 3005.44 2750.29 2998.6 2744.44 2991.66C2728.42 2972.63 2721.94 2966.16 2701.03 2948.27C2686.7 2936.02 2659.34 2916.53 2656.46 2916.53C2655.92 2916.53 2654.47 2915.7 2653.25 2914.68C2652.03 2913.67 2646.27 2911.02 2640.46 2908.8C2634.65 2906.58 2629.26 2904.31 2628.49 2903.75C2624.35 2900.78 2588.37 2890.55 2577.08 2889.13C2572.82 2888.6 2565.53 2887.29 2560.88 2886.22C2550.74 2883.88 2518.67 2883.6 2507.9 2885.75C2503.74 2886.58 2494.62 2888.09 2487.65 2889.09C2462.35 2892.74 2419.37 2904.68 2393.28 2915.31C2374.6 2922.91 2342.17 2939.79 2324.97 2950.85C2291.4 2972.43 2280.84 2979.57 2272.04 2986.59C2271.21 2987.26 2267.92 2989.44 2264.74 2991.44C2259.22 2994.92 2234.89 3012.99 2233.42 3014.71C2233.03 3015.16 2229.11 3018.26 2224.71 3021.6C2220.3 3024.94 2215.23 3029.06 2213.44 3030.77C2211.65 3032.48 2206.73 3036.7 2202.51 3040.15C2198.29 3043.6 2190.37 3050.62 2184.9 3055.74C2179.44 3060.86 2172.41 3067.18 2169.29 3069.78C2166.16 3072.38 2160.77 3077.35 2157.31 3080.83C2153.85 3084.32 2145.64 3092.28 2139.05 3098.54C2101.56 3134.14 2063.05 3176.72 2022.34 3227.57C2010.59 3242.24 1996.87 3259.38 1991.85 3265.65C1986.83 3271.92 1982.71 3277.5 1982.71 3278.05C1982.71 3278.96 1979.13 3284.11 1958.7 3312.52C1955.09 3317.55 1947.94 3327.97 1942.8 3335.69C1937.65 3343.42 1930.91 3353.21 1927.79 3357.46C1924.68 3361.71 1921.72 3366.13 1921.21 3367.29C1920.7 3368.45 1916.61 3374.88 1912.12 3381.59C1905.04 3392.16 1889.38 3418.64 1886.52 3424.86C1885.99 3426.02 1882.68 3431.39 1879.16 3436.8C1875.65 3442.2 1871.52 3449.16 1869.98 3452.25C1868.45 3455.33 1865.73 3460.39 1863.93 3463.48C1858.04 3473.61 1833.05 3520.05 1831.07 3524.57C1830.56 3525.72 1829.1 3528.25 1827.82 3530.18C1826.54 3532.11 1823.75 3537.65 1821.62 3542.49C1819.49 3547.33 1815.67 3554.96 1813.12 3559.45C1810.58 3563.94 1807.04 3571.98 1805.26 3577.33C1803.48 3582.68 1801.51 3588 1800.87 3589.16C1796.68 3596.82 1786.71 3618.42 1786 3621.38C1785.53 3623.36 1784.46 3626.23 1783.62 3627.78C1782.79 3629.32 1779.81 3636.19 1777 3643.04C1773.34 3651.98 1770.82 3656.14 1768.06 3657.78C1764.44 3659.95 1764.1 3659.92 1762.2 3657.35C1759.98 3654.35 1759.78 3626.06 1761.62 3577.22Z" fill="url(#paint2_linear_145_46)"/>
<g filter="url(#filter0_d_145_46)">
<path d="M1759.96 3585.26C1760.56 3578.43 1761.78 3558.74 1762.67 3541.49C1764.78 3500.63 1767.41 3471.89 1771.48 3445.23C1772.29 3440.01 1773.48 3430.35 1774.15 3423.76C1774.81 3417.16 1776.1 3409.46 1777 3406.65C1777.91 3403.82 1779.87 3392.48 1781.36 3381.43C1785.56 3350.26 1787.73 3338.18 1792.67 3318.33C1793.57 3314.71 1795.24 3306.18 1796.38 3299.36C1797.52 3292.54 1799.33 3284.01 1800.39 3280.4C1801.46 3276.79 1802.78 3270.95 1803.33 3267.42C1803.88 3263.89 1805.21 3258.83 1806.3 3256.16C1807.38 3253.5 1808.28 3249.5 1808.3 3247.26C1808.32 3245.03 1810.58 3234.34 1813.33 3223.51C1816.08 3212.68 1818.87 3200.46 1819.54 3196.35C1820.21 3192.24 1821.5 3187.44 1822.42 3185.68C1823.95 3182.73 1832.19 3154.69 1835.51 3141.1C1836.29 3137.89 1838.08 3132.64 1839.48 3129.43C1840.88 3126.22 1844.72 3114.74 1848.02 3103.9C1851.31 3093.08 1855.21 3081.26 1856.68 3077.65C1859.02 3071.93 1861.78 3063.89 1870.02 3039C1871.08 3035.79 1873.28 3030.56 1874.9 3027.38C1876.51 3024.21 1877.84 3020.47 1877.84 3019.08C1879.2 3017.99 1878.4 3016.2 1879.08 3015.77C1879.77 3015.33 1881.77 3011.19 1883.52 3006.57C1885.28 3001.94 1888.15 2995.2 1889.9 2991.59C1891.65 2987.98 1894.52 2980.1 1896.28 2974.08C1898.04 2968.07 1900.13 2961.84 1900.95 2960.23C1901.76 2958.62 1902.94 2956.33 1903.56 2955.13C1904.19 2953.92 1907.33 2947.03 1910.52 2939.81C1913.72 2932.59 1918.25 2923.07 1920.59 2918.66C1922.93 2914.25 1926.74 2906.37 1929.07 2901.16C1931.41 2895.94 1935.24 2888.06 1937.59 2883.65C1939.95 2879.24 1944.39 2870.38 1947.47 2863.96C1950.55 2857.54 1953.87 2851.01 1954.85 2849.46C1960.77 2840.1 1965.6 2831.47 1966.42 2828.78C1966.94 2827.08 1968.63 2824.52 1970.17 2823.08C1971.71 2821.65 1972.98 2819.83 1972.98 2819.03C1972.98 2818.24 1975.12 2814.23 1977.74 2810.14C1980.37 2806.05 1983.29 2800.25 1984.24 2797.25C1985.19 2794.25 1986.54 2791.43 1987.24 2790.99C1987.95 2790.54 1990.8 2786.1 1993.59 2781.12C2000.2 2769.29 2001.05 2767.91 2007.76 2758.13C2010.89 2753.58 2014.4 2748.36 2015.57 2746.53C2016.74 2744.71 2018.98 2741.5 2020.54 2739.41C2025.41 2732.88 2029.77 2726.27 2029.77 2725.43C2029.77 2724.98 2033.44 2719.75 2037.93 2713.79C2042.42 2707.84 2048.02 2700.22 2050.35 2696.87C2052.7 2693.52 2057.17 2687.27 2060.3 2682.98C2063.42 2678.7 2068.17 2672.05 2070.86 2668.2C2075.42 2661.67 2084.47 2650.72 2105.52 2626.27C2129.72 2598.18 2144.82 2582.69 2176.73 2553.22C2182.2 2548.17 2189.54 2541.71 2193.06 2538.87C2210.85 2524.5 2232.85 2507.6 2238.87 2503.69C2242.59 2501.28 2249.93 2496.26 2255.2 2492.54C2263.45 2486.71 2274.99 2480.02 2295.29 2469.29C2311.74 2460.6 2334.45 2450.77 2354.93 2443.49C2358.44 2442.24 2362.59 2440.7 2364.15 2440.07C2369.89 2437.74 2388.56 2433.02 2398.23 2431.46C2403.7 2430.57 2410.73 2428.94 2413.85 2427.82C2432 2421.36 2518.08 2421.4 2536.67 2427.88C2540.18 2429.11 2548.49 2431 2555.13 2432.11C2561.77 2433.21 2569.11 2434.81 2571.46 2435.67C2573.8 2436.53 2580.83 2438.83 2587.08 2440.79C2602.35 2445.58 2632.3 2458.35 2640.32 2463.48C2641.49 2464.24 2646.29 2466.77 2650.97 2469.12C2672.82 2480.06 2684.76 2487.4 2694.77 2496.04C2697.77 2498.64 2702.74 2502.51 2705.82 2504.65C2716.73 2512.26 2757.66 2550.21 2773.92 2567.8C2781.23 2575.7 2783.29 2578.78 2781.96 2579.81C2780.83 2580.68 2774.22 2580.53 2763.85 2579.38C2715.45 2574 2659.74 2573.14 2628.25 2577.28C2622 2578.11 2611.46 2579.38 2604.82 2580.13C2584.6 2582.39 2563.15 2586.16 2561.24 2587.78C2560.25 2588.63 2554.76 2589.86 2549.04 2590.52C2539.07 2591.67 2498.41 2603.5 2495 2606.24C2494.1 2606.98 2490.65 2608 2487.33 2608.51C2484.02 2609.04 2478.59 2610.7 2475.26 2612.22C2468.83 2615.14 2453.05 2621.51 2443.67 2624.96C2438.34 2626.91 2428.81 2631.59 2422.37 2635.41C2420.81 2636.33 2413.46 2640.09 2406.04 2643.75C2398.62 2647.41 2390.95 2651.29 2389 2652.38C2387.05 2653.46 2383.21 2655.39 2380.48 2656.67C2374.32 2659.55 2360.72 2667.31 2358.44 2669.25C2357.52 2670.05 2353.63 2672.39 2349.81 2674.47C2345.98 2676.54 2341.57 2679.43 2340.02 2680.9C2338.45 2682.37 2331.06 2687.76 2323.59 2692.87C2316.11 2697.99 2309.08 2702.95 2307.96 2703.89C2306.85 2704.83 2298.91 2711 2290.32 2717.59C2267.11 2735.4 2244.76 2754.07 2224.38 2772.65C2209.55 2786.17 2161.04 2835.97 2152.56 2846.37C2148.67 2851.15 2144.17 2856.4 2142.56 2858.05C2140.95 2859.69 2135.21 2866.62 2129.81 2873.44C2124.4 2880.26 2119.48 2886.21 2118.87 2886.66C2118.27 2887.12 2115.07 2891.16 2111.76 2895.64C2099.03 2912.89 2094.16 2919.16 2087.82 2926.44C2084.22 2930.58 2079.56 2936.6 2077.47 2939.81C2075.38 2943.02 2071.47 2948.93 2068.78 2952.94C2066.09 2956.95 2063.08 2961.49 2062.09 2963.02C2061.11 2964.56 2057.74 2969.15 2054.61 2973.23C2051.49 2977.31 2047.02 2983.52 2044.68 2987.01C2042.34 2990.51 2037.86 2997.13 2034.74 3001.72C2031.61 3006.32 2027.78 3011.97 2026.22 3014.27C2024.66 3016.57 2021.62 3020.43 2019.47 3022.85C2017.33 3025.27 2015.57 3027.86 2015.57 3028.61C2015.57 3029.36 2013.12 3033.32 2010.14 3037.4C2007.15 3041.49 2002.84 3048.11 2000.56 3052.12C1998.29 3056.13 1993.19 3064.34 1989.22 3070.36C1985.25 3076.37 1981.32 3083.34 1980.47 3085.83C1979.15 3089.76 1977.24 3093.15 1969.45 3105.47C1968.65 3106.73 1966.09 3110.89 1963.74 3114.72C1961.4 3118.55 1956.77 3126.05 1953.46 3131.39C1950.15 3136.73 1947.43 3141.53 1947.42 3142.04C1947.42 3142.57 1944.97 3147.16 1941.98 3152.25C1938.99 3157.35 1934.72 3165.46 1932.5 3170.27C1930.29 3175.08 1927.69 3180.01 1926.74 3181.21C1922.59 3186.49 1893.12 3248.78 1889.94 3259.03C1887.02 3268.4 1877.69 3291.08 1875.75 3293.53C1874.8 3294.73 1873.03 3298.67 1871.82 3302.28C1864.63 3323.88 1860.65 3334.72 1858.85 3337.64C1857.73 3339.45 1856.37 3343.23 1855.81 3346.04C1855.25 3348.85 1854.3 3351.8 1853.69 3352.6C1853.08 3353.4 1851.91 3356.36 1851.09 3359.17C1848.38 3368.55 1845.21 3377.35 1842.42 3383.23C1840.91 3386.44 1837.03 3397.93 1833.8 3408.76C1830.58 3419.59 1826.7 3431.15 1825.2 3434.45C1823.69 3437.74 1822.47 3441.54 1822.47 3442.88C1822.47 3444.22 1821.29 3449.07 1819.86 3453.66C1818.43 3458.24 1815.83 3466.92 1814.08 3472.94C1812.34 3478.96 1809.99 3486.03 1808.87 3488.67C1807.76 3491.31 1805.8 3499.18 1804.53 3506.18C1803.25 3513.17 1801.48 3522.82 1800.59 3527.64C1799.7 3532.45 1798.25 3537.72 1797.35 3539.33C1796.47 3540.95 1795.28 3544.89 1794.72 3548.08C1794.16 3551.28 1791.81 3561.12 1789.49 3569.94C1787.17 3578.77 1784.68 3589.92 1783.94 3594.73C1783.2 3599.55 1781.68 3605.78 1780.56 3608.59C1778.26 3614.37 1767.72 3661.22 1766.41 3671.48C1765.52 3678.48 1762.4 3684.49 1760.61 3682.65C1759.16 3681.16 1758.63 3600.39 1759.96 3585.26Z" fill="url(#paint3_linear_145_46)"/>
</g>
<path d="M1249.2 4032.65C1256.05 3992.37 1258.16 3972.46 1268.39 3946.13C1274.91 3929.34 1288.71 3900.91 1295.23 3890.85C1297.3 3887.65 1299.63 3884.01 1300.42 3882.75C1304.02 3877.03 1326.23 3848.82 1335.04 3838.8C1340.42 3832.68 1355.29 3817.89 1369.04 3805C1381.35 3793.46 1401.86 3777.48 1422.87 3763.06C1428.35 3759.3 1434.1 3755.12 1435.65 3753.76C1437.2 3752.39 1441.64 3749.46 1445.53 3747.24C1449.42 3745.03 1455.44 3741.11 1458.91 3738.53C1467.68 3732.02 1493.07 3715.83 1494.52 3715.83C1495.18 3715.83 1500.25 3712.91 1505.79 3709.33C1511.34 3705.75 1520.64 3700.35 1526.46 3697.33C1532.28 3694.31 1540.11 3689.95 1543.86 3687.65C1559.63 3677.97 1609.58 3652.55 1626.32 3645.67C1634.26 3642.42 1637.19 3641.77 1638.65 3642.98C1641.27 3645.15 1641.07 3647.29 1637.29 3657.31C1635.49 3662.08 1632.89 3669.46 1631.51 3673.71C1630.13 3677.95 1627.21 3686.16 1625.03 3691.96C1617.64 3711.61 1609.4 3740.42 1605.96 3758.66C1604.79 3764.84 1603.14 3772.74 1602.29 3776.21C1596.16 3801.33 1593.76 3857.54 1597.53 3887.85C1598.78 3897.89 1600.43 3908.64 1601.19 3911.72C1601.96 3914.81 1603.25 3921.45 1604.06 3926.47C1605.5 3935.42 1610.94 3953.96 1614.56 3962.27C1615.57 3964.59 1616.83 3968.23 1617.37 3970.37C1617.9 3972.5 1618.9 3974.59 1619.59 3975.01C1620.27 3975.43 1620.84 3976.88 1620.84 3978.23C1620.84 3980.55 1624.9 3989.85 1630.82 4001.08C1632.31 4003.89 1633.52 4007.06 1633.52 4008.13C1633.52 4012.41 1651.8 4043.94 1660.27 4054.25C1663.12 4057.73 1666.27 4062.15 1667.28 4064.08C1668.29 4066.02 1672.33 4071.7 1676.24 4076.72C1703.04 4111.06 1742.73 4150.48 1778.78 4178.53C1785.24 4183.56 1794.02 4190.4 1798.28 4193.73C1802.54 4197.06 1808.24 4201.31 1810.96 4203.15C1813.67 4205 1816.52 4207.25 1817.29 4208.16C1819.31 4210.52 1833.07 4219.85 1836.73 4221.34C1838.44 4222.04 1846.16 4226.71 1853.91 4231.73C1861.66 4236.76 1873.69 4244.08 1880.66 4248.01C1887.64 4251.94 1894.29 4255.73 1895.45 4256.43C1923.85 4273.6 1987.34 4305.5 2005.3 4311.62C2008.78 4312.81 2018.61 4316.75 2027.13 4320.37C2035.65 4323.99 2045.16 4327.8 2048.26 4328.85C2056.59 4331.67 2063.77 4334.36 2077.12 4339.64C2092.47 4345.72 2147.14 4363.43 2185.56 4374.79C2192.14 4376.73 2207.67 4380.68 2220.07 4383.57C2232.45 4386.46 2247.29 4390.07 2253.03 4391.59C2258.76 4393.11 2267.95 4394.87 2273.44 4395.51C2289.5 4397.37 2311.09 4401.1 2317.94 4403.2C2321.42 4404.27 2328.39 4405.55 2333.43 4406.05C2338.46 4406.55 2348.29 4407.82 2355.26 4408.88C2362.23 4409.93 2378.71 4412.09 2391.88 4413.68C2439.05 4422.97 2414.06 4417.97 2439.05 4422.97C2441.55 4423.92 2464.2 4427.97 2469.2 4437.97C2469.2 4442.97 2406.72 4445.27 2365.38 4456.76C2359.19 4458.49 2351.19 4455.72 2349.66 4456.76C2348.13 4457.82 2345.1 4458.68 2342.93 4458.68C2340.75 4458.68 2336.68 4459.63 2333.88 4460.8C2331.08 4461.96 2324.92 4463.88 2320.19 4465.06C2315.47 4466.23 2305.58 4469 2298.22 4471.23C2290.87 4473.44 2280.09 4476.24 2274.29 4477.44C2268.47 4478.64 2258.02 4480.95 2251.05 4482.57C2244.08 4484.19 2234.57 4486.39 2229.92 4487.47C2225.28 4488.55 2218.94 4490.06 2215.84 4490.83C2206.64 4493.12 2189.86 4496.35 2177.81 4498.15C2171.62 4499.08 2164.09 4500.69 2161.09 4501.73C2158.09 4502.76 2153.94 4503.61 2151.88 4503.61C2149.82 4503.61 2144.35 4504.61 2139.73 4505.82C2130.91 4508.14 2127.97 4508.57 2088.39 4513.37C2074.83 4515.01 2059.31 4517.25 2053.89 4518.33C2048.46 4519.42 2036.42 4520.7 2027.13 4521.18C2017.83 4521.66 2007.06 4522.64 2003.19 4523.35C1999.31 4524.07 1975.39 4525.39 1950.01 4526.29C1898.32 4528.13 1818.56 4526.21 1796.88 4522.61C1790.29 4521.51 1780.44 4520.58 1774.99 4520.54C1769.54 4520.5 1761.62 4519.6 1757.39 4518.55C1753.16 4517.5 1743.04 4515.88 1734.91 4514.96C1714.63 4512.65 1685.8 4507.1 1665.2 4501.52C1661.33 4500.48 1654.36 4498.9 1649.71 4498.01C1645.06 4497.11 1638.09 4495.53 1634.22 4494.49C1619.16 4490.41 1605.84 4486.44 1601.12 4484.63C1598.42 4483.58 1589.86 4481.05 1582.11 4478.99C1569.35 4475.61 1549.48 4465.18 1534.16 4457.97C1530.98 4456.47 1529.82 4457.97 1529.16 4457.97C1528.5 4457.97 1525.47 4456.04 1519.16 4452.97C1512.86 4449.9 1504.12 4445.33 1499.17 4442.97C1486.17 4436.79 1472.55 4426.51 1459.17 4417.97C1452.72 4413.84 1445.45 4408.74 1444.17 4407.97C1442.89 4407.19 1437.93 4405.63 1434.17 4402.97C1430.41 4400.31 1423.83 4396.13 1419.17 4392.97C1394.98 4376.47 1398.44 4372.43 1374.18 4347.97C1339.38 4312.88 1315.65 4276.68 1299.19 4242.64C1276.86 4196.49 1272.23 4186.42 1264.19 4152.65C1257.46 4124.37 1249.54 4126.61 1249.2 4082.65C1249.02 4059.09 1248.86 4034.58 1249.2 4032.65Z" fill="url(#paint4_linear_145_46)"/>
<g filter="url(#filter1_d_145_46)">
<path d="M1249.87 4028.1C1250.4 4020.09 1251.42 4012.6 1252.17 4011.45C1252.9 4010.3 1254.34 4004.4 1255.36 3998.34C1259.8 3971.8 1267.36 3946.04 1278.15 3920.7C1282.11 3911.39 1286.54 3911.83 1286.58 3921.54C1286.61 3926.92 1293.56 3952.06 1296.71 3958.14C1298.36 3961.31 1299.7 3964.74 1299.7 3965.76C1299.7 3968.44 1311.38 3997.13 1313.52 3999.7C1314.52 4000.9 1316.09 4004.12 1317.01 4006.86C1319.05 4012.92 1328.4 4029.82 1330.4 4031.05C1331.19 4031.54 1332.81 4034.27 1334 4037.11C1336.52 4043.12 1356.21 4073.38 1363.37 4082.23C1366.07 4085.57 1368.27 4088.81 1368.27 4089.42C1368.27 4090.03 1370.9 4093.65 1374.11 4097.44C1377.32 4101.24 1379.95 4104.82 1379.95 4105.4C1379.95 4112.17 1473.95 4208.23 1491.25 4219.14C1494.29 4221.06 1498.03 4223.88 1499.56 4225.41C1501.1 4226.94 1505.66 4230.47 1509.7 4233.24C1513.74 4236.02 1518.14 4239.38 1519.49 4240.73C1520.84 4242.07 1524.3 4244.72 1527.18 4246.62C1530.06 4248.52 1536.03 4252.71 1540.44 4255.94C1544.86 4259.17 1550.21 4262.79 1552.35 4263.98C1554.49 4265.18 1561.28 4269.77 1567.46 4274.2C1573.63 4278.62 1579.52 4282.23 1580.54 4282.23C1581.56 4282.23 1583.18 4283.18 1584.14 4284.33C1585.09 4285.48 1588.62 4287.84 1591.97 4289.57C1595.33 4291.32 1605.3 4296.52 1614.13 4301.14C1622.95 4305.77 1631.82 4310.03 1633.83 4310.63C1635.83 4311.22 1645.35 4315.5 1654.98 4320.13C1664.61 4324.76 1677.74 4330.2 1684.16 4332.22C1690.58 4334.25 1701.62 4338.24 1708.68 4341.11C1715.75 4343.98 1722.3 4346.32 1723.24 4346.32C1725.18 4346.32 1735.59 4350.22 1752.74 4357.37C1759.16 4360.05 1766.38 4362.66 1768.79 4363.17C1772.83 4364.04 1790.18 4369.46 1815.72 4377.84C1821.47 4379.73 1827.7 4381.27 1829.55 4381.27C1831.41 4381.27 1836.23 4382.52 1840.25 4384.06C1844.28 4385.58 1851.52 4387.93 1856.33 4389.26C1861.14 4390.58 1869.02 4392.93 1873.84 4394.45C1878.65 4395.98 1886.53 4397.63 1891.35 4398.11C1896.16 4398.59 1902.07 4399.62 1904.48 4400.39C1906.89 4401.16 1913.66 4402.4 1919.54 4403.16C1925.41 4403.91 1931.97 4405.5 1934.13 4406.68C1936.28 4407.87 1946.57 4410.18 1957 4411.82C1967.44 4413.47 1981.23 4415.82 1987.65 4417.07C1994.07 4418.31 2004.9 4419.87 2011.72 4420.53C2018.54 4421.18 2027.73 4422.73 2032.15 4423.96C2036.56 4425.19 2049.04 4426.92 2059.87 4427.8C2077.97 4429.27 2090.14 4430.59 2128.44 4435.24C2136.07 4436.17 2158.06 4437.46 2177.32 4438.13C2196.58 4438.78 2222.19 4440.4 2234.23 4441.73C2252.93 4443.79 2268.43 4444.04 2340.74 4443.43C2401.95 4442.92 2431.01 4442.11 2445.78 4440.51C2466.83 4438.24 2474.2 4438.97 2464.84 4442.41C2461.83 4443.4 2457.63 4445.12 2455.5 4446.23C2453.37 4447.33 2450.82 4448.25 2449.82 4448.25C2448.84 4448.26 2442.27 4450.15 2435.23 4452.45C2428.2 4454.75 2418.83 4457.46 2414.42 4458.46C2410.01 4459.47 2405.65 4460.88 2404.74 4461.6C2403.83 4462.32 2399.89 4463.76 2395.99 4464.82C2364.94 4473.21 2354.18 4475.93 2352.01 4475.94C2350.62 4475.95 2347.52 4477.01 2345.11 4478.32C2340.9 4480.6 2335.83 4481.72 2307.18 4486.68C2299.96 4487.93 2289.12 4490.24 2283.1 4491.82C2260.2 4497.83 2253.83 4499.23 2249.6 4499.23C2247.2 4499.23 2242.76 4500.16 2239.73 4501.3C2236.7 4502.44 2229.63 4503.78 2224.02 4504.27C2218.4 4504.77 2209.53 4506.17 2204.32 4507.38C2195.22 4509.5 2183.29 4511.67 2161.27 4515.22C2155.65 4516.12 2147.78 4517.49 2143.76 4518.26C2139.75 4519.02 2122.68 4520.91 2105.83 4522.45C2088.98 4523.99 2071.58 4525.91 2067.17 4526.73C2062.75 4527.53 2047.65 4528.95 2033.6 4529.86C2019.56 4530.78 2000.85 4532.08 1992.02 4532.77C1971.29 4534.39 1868.61 4534.36 1853.41 4532.74C1846.99 4532.05 1832.54 4530.75 1821.31 4529.85C1810.08 4528.96 1795.96 4527.3 1789.94 4526.16C1783.92 4525.03 1770.79 4523.41 1760.76 4522.56C1750.73 4521.72 1737.93 4520.1 1732.31 4518.96C1726.69 4517.82 1717.17 4515.9 1711.16 4514.69C1705.14 4513.48 1695.61 4511.39 1689.99 4510.05C1684.38 4508.7 1674.86 4506.73 1668.84 4505.65C1662.82 4504.57 1654.28 4502.63 1649.87 4501.34C1645.46 4500.04 1638.24 4498 1633.83 4496.8C1629.41 4495.6 1622.27 4493.27 1617.97 4491.62C1613.66 4489.97 1606.11 4487.77 1601.19 4486.74C1573.76 4478.97 1589.2 4483.97 1573.76 4478.44C1571.89 4477.3 1563.13 4473.57 1554.31 4470.16C1545.48 4466.75 1537.27 4463.37 1536.07 4462.65C1534.86 4461.92 1531.25 4460.11 1528.04 4458.63C1506.9 4448.83 1500.02 4445.34 1485.51 4437.07C1476.56 4431.97 1468.44 4426.83 1467.46 4425.65C1466.48 4424.47 1464.88 4423.5 1463.91 4423.5C1462.93 4423.5 1458.53 4421.04 1454.12 4418.04C1449.71 4415.04 1445.06 4411.93 1443.78 4411.12C1432.81 4404.25 1410.16 4388.34 1402.83 4382.35C1389.56 4371.49 1356.04 4337.27 1340.55 4318.75C1336.94 4314.43 1331.93 4308.55 1329.41 4305.67C1326.9 4302.8 1320 4293.07 1314.09 4284.05C1298.37 4260.07 1296.78 4257.45 1296.78 4255.56C1296.78 4253.91 1286.58 4232.1 1277.9 4215.24C1275.63 4210.84 1273.33 4205.15 1272.78 4202.6C1272.24 4200.05 1270.85 4197.18 1269.69 4196.23C1268.54 4195.28 1267.6 4193.41 1267.6 4192.08C1267.6 4190.75 1266.7 4186.41 1265.61 4182.43C1258.94 4158.16 1256.08 4146.68 1255.12 4140.27C1254.52 4136.27 1253.14 4130.86 1252.04 4128.24C1249.76 4122.79 1248.25 4053.16 1249.87 4028.1Z" fill="url(#paint5_linear_145_46)"/>
</g>
<path d="M2864.5 4360.98C2866.96 4360.49 2874.99 4360.09 2882.35 4360.09C2894.91 4360.09 2908.4 4358.56 2938.34 4353.73C2945.32 4352.6 2955.77 4351 2961.59 4350.17C2967.4 4349.34 2975.32 4347.8 2979.19 4346.76C2983.07 4345.71 2989.4 4344.41 2993.28 4343.86C2997.15 4343.33 3001.54 4342.25 3003.03 4341.47C3004.53 4340.7 3009.28 4339.26 3013.6 4338.28C3028.9 4334.79 3038.79 4332.09 3043.47 4330.12C3046.07 4329.02 3052.01 4326.73 3056.66 4325.02C3071.58 4319.55 3081.71 4315.16 3094.69 4308.51C3112.9 4299.18 3112.51 4299.41 3118.51 4294.79C3121.52 4292.48 3126.06 4289.32 3128.59 4287.77C3148.14 4275.83 3183.08 4238.99 3200.07 4212.39C3206.56 4202.23 3217.92 4180.73 3217.93 4178.58C3217.94 4177.62 3218.94 4174.94 3220.17 4172.62C3224.45 4164.51 3227.31 4155.54 3231.15 4138.18C3233.28 4128.55 3236.25 4115.85 3237.74 4109.97C3239.23 4104.08 3240.46 4096.18 3240.46 4092.41C3240.46 4088.65 3241.44 4080.19 3242.64 4073.63C3245.63 4057.11 3245.62 3999.13 3242.61 3982.35C3241.43 3975.79 3240.46 3966.71 3240.46 3962.19C3240.46 3957.67 3239.56 3950.4 3238.47 3946.04C3237.37 3941.68 3236.07 3934.64 3235.58 3930.39C3235.1 3926.14 3234.14 3919.83 3233.46 3916.35C3232.77 3912.87 3231.47 3904.98 3230.55 3898.8C3228.52 3885.1 3222.31 3858.63 3220.66 3856.6C3220 3855.79 3219.05 3852.32 3218.55 3848.87C3217.68 3842.85 3216.58 3838.93 3208.95 3814.54C3202.52 3794.01 3189.9 3759.48 3186.36 3752.76C3185.14 3750.44 3184.11 3747.6 3184.08 3746.44C3184.05 3745.28 3182.8 3741.8 3181.3 3738.71C3179.81 3735.63 3178.56 3732.65 3178.54 3732.1C3178.37 3728.53 3129.96 3627.98 3126.19 3623.38C3125.47 3622.5 3123.42 3619.02 3121.62 3615.65C3112.23 3598.03 3079.69 3546.29 3076.18 3543.39C3075.16 3542.55 3073.41 3540.1 3072.3 3537.96C3071.18 3535.82 3067.03 3529.88 3063.07 3524.75C3059.1 3519.63 3053 3511.12 3049.5 3505.84C3046.01 3500.55 3042.55 3495.5 3041.82 3494.6C3034.63 3485.82 3022.15 3469.35 3022.14 3468.62C3022.14 3468.11 3020.36 3465.8 3018.2 3463.49C3016.04 3461.17 3010.85 3454.85 3006.66 3449.44C3002.48 3444.03 2997.28 3437.82 2995.11 3435.64C2990.97 3431.49 2989.93 3427.66 2992.92 3427.69C2996.72 3427.73 3007.97 3431.82 3017.29 3436.57C3022.68 3439.31 3030.88 3443.26 3035.53 3445.35C3040.18 3447.44 3046.44 3450.7 3049.45 3452.59C3052.46 3454.48 3059.43 3458.4 3064.94 3461.29C3070.46 3464.19 3077.82 3468.18 3081.3 3470.17C3084.79 3472.15 3091.45 3475.79 3096.09 3478.24C3100.74 3480.7 3105.55 3483.59 3106.77 3484.68C3107.99 3485.77 3109.32 3486.65 3109.71 3486.65C3110.75 3486.65 3131.36 3499.16 3140.44 3505.3C3144.69 3508.17 3148.65 3510.53 3149.24 3510.53C3149.83 3510.53 3154.59 3513.56 3159.82 3517.26C3165.05 3520.96 3173.51 3526.31 3178.63 3529.14C3183.74 3531.98 3188.72 3535.27 3189.71 3536.45C3190.7 3537.64 3192.02 3538.61 3192.64 3538.61C3193.86 3538.61 3209.8 3549.22 3221.61 3557.9C3234.62 3567.45 3251.93 3579.99 3255.02 3582.12C3270.23 3592.55 3303.07 3617.96 3322.85 3634.6C3328.27 3639.17 3338.42 3647.65 3345.39 3653.45C3356.96 3663.08 3360.72 3672.04 3389.2 3697.98C3413.87 3720.46 3481.04 3790.76 3494.2 3807.98C3497.45 3812.23 3501.83 3815.42 3504.2 3817.98C3506.55 3820.54 3509.18 3822.45 3509.2 3822.98C3509.21 3823.51 3510.66 3829.12 3514.2 3832.98C3517.74 3836.84 3521.85 3844.5 3524.2 3847.98C3526.54 3851.45 3532.31 3855.66 3534.2 3857.98C3540.3 3865.5 3547.3 3877.73 3554.2 3887.98C3557.91 3893.48 3557.68 3891.6 3559.2 3892.98C3560.72 3894.35 3564.2 3902.42 3564.2 3902.98C3557.56 3902.98 3568.5 3918.69 3574.2 3927.98C3559.29 3924.44 3577.1 3934.11 3579.2 3937.98C3581.29 3941.84 3582.29 3949.88 3584.2 3952.98C3586.1 3956.06 3592.2 3963.73 3594.2 3967.98C3596.19 3972.22 3600.56 3977.65 3601.65 3979.58C3605.76 3986.83 3619.95 4011.15 3624.2 4022.98C3625.31 4026.07 3628.07 4030.54 3629.2 4032.98C3630.32 4035.41 3629.2 4036.96 3629.2 4037.98C3629.2 4039.59 3633.99 4058.01 3639.2 4072.97C3642.71 4083.11 3648.4 4099.38 3654.2 4132.97C3658 4154.99 3653.44 4221.83 3649.2 4232.97C3648.46 4234.91 3650.47 4245.51 3649.2 4252.97C3647.92 4260.44 3646.07 4267.51 3644.2 4272.97C3642.31 4278.44 3635.22 4284.5 3634.2 4287.97C3630.82 4299.4 3628.34 4314.52 3619.2 4332.97C3616.19 4339.05 3614.2 4342.15 3614.2 4342.97C3614.2 4343.79 3582.4 4333.57 3604.2 4347.88C3582.4 4338.57 3598.69 4345.63 3594.2 4352.97C3586.06 4366.26 3577.7 4373.69 3569.2 4382.97C3566.73 4385.66 3559.57 4396.79 3559.2 4397.97C3558.16 4401.18 3536.27 4433.45 3524.2 4442.97C3514.7 4450.46 3516.07 4453.46 3494.2 4467.97C3490.34 4470.52 3490.52 4462.97 3489.2 4462.97C3487.87 4462.97 3474.66 4477.22 3474.2 4477.97C3473.34 4479.35 3474.68 4485.6 3454.2 4494.94C3436.45 4503.04 3410.76 4517.14 3384.2 4522.97C3346.73 4531.18 3259.19 4539.86 3218.63 4532.61C3202.22 4529.67 3182.02 4525.2 3173.56 4522.64C3169.69 4521.46 3161.13 4519.09 3154.54 4517.38C3142.75 4514.31 3131.81 4510.64 3122.15 4506.52C3119.44 4505.36 3114.37 4503.59 3110.88 4502.6C3102.37 4500.15 3092.4 4496.58 3089.51 4494.94C3088.21 4494.21 3079.65 4490.69 3070.49 4487.13C3046.68 4477.88 2977.46 4442.91 2956.65 4429.63C2952.78 4427.16 2945.47 4422.66 2940.41 4419.64C2935.35 4416.63 2929.96 4413.39 2928.44 4412.46C2922.23 4408.67 2890.03 4390.25 2884.12 4387.12C2880.63 4385.27 2873.98 4380.75 2869.33 4377.09C2862.79 4371.92 2860.79 4369.45 2860.46 4366.15C2860.08 4362.35 2860.52 4361.78 2864.5 4360.98Z" fill="url(#paint6_linear_145_46)"/>
<g filter="url(#filter2_d_145_46)">
<path d="M3010.04 3432.98C3012.65 3432.98 3028.14 3439.02 3030.17 3440.83C3031.39 3441.92 3033.07 3442.81 3033.9 3442.81C3034.73 3442.81 3038.8 3445.1 3042.95 3447.9C3047.09 3450.7 3052.38 3453.64 3054.71 3454.43C3057.03 3455.21 3059.63 3456.4 3060.48 3457.05C3062.34 3458.49 3077.85 3467.06 3085.69 3470.99C3088.79 3472.54 3092.6 3474.57 3094.16 3475.51C3114.48 3487.78 3120.64 3491.48 3122.72 3492.66C3124.07 3493.44 3127.41 3495.78 3130.14 3497.87C3132.88 3499.97 3136.98 3502.51 3139.28 3503.51C3141.56 3504.51 3148.89 3508.96 3155.57 3513.39C3162.24 3517.83 3168.31 3521.45 3169.06 3521.45C3169.82 3521.45 3174.06 3523.98 3178.48 3527.07C3182.9 3530.16 3186.73 3532.69 3186.98 3532.69C3187.84 3532.69 3206.81 3545.64 3212.29 3549.96C3218.71 3555.03 3224.39 3559.21 3232.17 3564.58C3235.27 3566.72 3243.34 3572.78 3250.1 3578.05C3256.87 3583.32 3265.2 3589.65 3268.61 3592.11C3283.51 3602.86 3312.96 3625.44 3313.39 3626.44C3313.65 3627.05 3317.36 3630.38 3321.64 3633.83C3330.97 3641.36 3354.84 3662.27 3379.18 3684.24C3399.16 3702.26 3458.64 3761.71 3466.4 3771.41C3469.18 3774.88 3473.75 3779.94 3476.54 3782.64C3479.33 3785.34 3484.09 3790.72 3487.11 3794.58C3490.14 3798.44 3493.73 3802.86 3495.09 3804.41C3499.36 3809.27 3515.18 3829.34 3521.51 3837.93C3524.85 3842.46 3528.48 3847.2 3529.59 3848.46C3532.61 3851.9 3552.55 3879.09 3558.95 3888.48C3568.1 3901.92 3569.38 3903.95 3570.9 3907.4C3571.69 3909.21 3574.78 3914.89 3577.75 3920.04C3596.86 3953.03 3612.76 3984.17 3620.2 4003.11C3622.77 4009.67 3625.41 4015.64 3626.06 4016.38C3626.71 4017.11 3627.24 4018.7 3627.24 4019.91C3627.24 4021.12 3628.51 4024.47 3630.06 4027.35C3631.61 4030.23 3632.88 4033.81 3632.88 4035.32C3632.88 4036.82 3634.39 4042.35 3636.25 4047.61C3638.1 4052.87 3640.69 4061.28 3642.01 4066.3C3643.33 4071.32 3645.55 4079.22 3646.95 4083.85C3648.35 4088.49 3649.89 4096.7 3650.36 4102.1C3650.83 4107.51 3652.22 4116.04 3653.45 4121.06C3655.07 4127.74 3655.86 4140.55 3656.4 4168.81C3657.09 4205.68 3656.96 4208.53 3653.34 4232C3649.91 4254.22 3646.73 4268.56 3642.56 4280.44C3641.75 4282.76 3640.23 4287.5 3639.18 4290.97C3636.37 4300.32 3632.63 4311.05 3631.34 4313.45C3630.4 4315.2 3624.22 4327.8 3616.21 4344.34C3614.23 4348.42 3611.3 4353.18 3600.61 4369.61C3581.63 4398.83 3550.02 4433.07 3525.13 4451.39C3524.35 4451.96 3521.73 4454.01 3519.3 4455.95C3508.58 4464.5 3492.06 4475.66 3484.28 4479.62C3479.64 4481.97 3474.88 4484.68 3473.72 4485.61C3470.04 4488.58 3450.65 4498.3 3446.26 4499.39C3443.93 4499.96 3441.08 4501.26 3439.92 4502.27C3438.75 4503.29 3434.32 4505.53 3430.06 4507.26C3425.8 4509 3419.73 4511.59 3416.58 4513.03C3413.43 4514.48 3409.76 4515.66 3408.42 4515.66C3407.07 4515.66 3404.2 4517.97 3402.1 4517.65C3397.02 4520.27 3381.44 4525.48 3378.69 4525.48C3375.73 4525.48 3375.98 4523.89 3379.79 4518.29C3381.58 4515.66 3384.91 4510.06 3387.18 4505.83C3389.46 4501.61 3392 4497.5 3392.83 4496.72C3395.12 4494.55 3399.22 4487.83 3404.24 4477.98C3406.73 4473.1 3409.37 4468.36 3410.09 4467.45C3413.16 4463.64 3429.28 4429.86 3435.67 4413.85C3438.14 4407.67 3441.68 4399.45 3443.56 4395.58C3445.43 4391.7 3446.96 4387.77 3446.96 4386.84C3446.96 4385.91 3447.85 4383.08 3448.95 4380.55C3452.24 4372.95 3456.82 4357.7 3456.82 4354.35C3456.82 4352.63 3457.73 4349.45 3458.86 4347.29C3460.7 4343.74 3464.75 4324.07 3468.27 4301.51C3469 4296.88 3470.25 4289.92 3471.07 4286.06C3475.07 4267.06 3475.09 4167.87 3471.09 4146.34C3470.3 4142.09 3468.02 4127.87 3466.02 4114.74C3464.02 4101.62 3461.33 4087.71 3460.06 4083.85C3458.78 4079.99 3457.29 4073.98 3456.75 4070.51C3455.22 4060.77 3444.53 4022.94 3442.65 4020.6C3442 4019.8 3440.85 4016.64 3440.09 4013.58C3437.55 4003.41 3427.95 3977.18 3425.47 3973.66C3424.12 3971.75 3423.02 3968.68 3423.02 3966.85C3423.02 3965.02 3422.1 3961.84 3420.98 3959.79C3419.86 3957.74 3417.89 3953.54 3416.61 3950.45C3415.32 3947.36 3412.52 3941.04 3410.39 3936.41C3403.92 3922.34 3401.89 3917.42 3401.89 3915.86C3401.89 3913.72 3362.92 3836.73 3359.7 3832.49C3359.11 3831.72 3354.95 3824.14 3350.47 3815.64C3345.98 3807.14 3340.81 3797.83 3339 3794.95C3337.18 3792.07 3335.69 3789.12 3335.69 3788.39C3335.69 3787.66 3334.26 3785.28 3332.5 3783.1C3330.75 3780.92 3327.77 3776.29 3325.88 3772.81C3323.99 3769.34 3320.99 3764.35 3319.21 3761.73C3317.43 3759.12 3315.97 3756.43 3315.97 3755.76C3315.97 3751.86 3270.84 3691 3247.34 3663.22C3208.39 3617.17 3210.32 3619.22 3168.72 3579.73C3153.27 3565.06 3136.18 3548.53 3130.76 3543C3125.34 3537.48 3116.78 3529.4 3111.75 3525.04C3101.46 3516.16 3092.48 3508.35 3080.06 3497.48C3075.41 3493.42 3067.55 3486.57 3062.6 3482.25C3057.64 3477.94 3049.72 3470.85 3044.99 3466.49C3040.27 3462.14 3030.22 3453.06 3022.66 3446.32C3009.02 3434.16 3007.91 3432.98 3010.04 3432.98Z" fill="url(#paint7_linear_145_46)"/>
</g>
<path d="M2450.87 3271.98C2453.15 3271.98 2466.42 3284.45 2473.27 3293.04C2474.81 3294.97 2479.68 3300.34 2484.08 3304.97C2488.49 3309.61 2498.5 3320.35 2506.32 3328.85C2528.62 3353.06 2685.27 3508.1 2716.52 3536.91C2747.05 3565.03 2779.13 3595.17 2781.79 3598.23C2783.03 3599.65 2789.11 3605.26 2795.3 3610.7C2801.5 3616.14 2810.69 3624.5 2815.72 3629.28C2820.76 3634.06 2834.38 3646.44 2846.01 3656.78C2857.62 3667.12 2870.3 3678.54 2874.17 3682.15C2878.05 3685.77 2883.33 3690.47 2885.9 3692.6C2888.48 3694.74 2892.33 3698.12 2894.46 3700.13C2896.58 3702.14 2903.29 3707.89 2909.36 3712.91C2915.42 3717.93 2924.32 3725.51 2929.12 3729.76C2933.93 3734.01 2941.28 3740.4 2945.45 3743.97C2949.64 3747.55 2959.07 3755.65 2966.43 3761.98C2989.5 3781.84 2993.77 3785.36 2998.12 3788.13C3003.23 3791.38 3015.76 3800.99 3023.5 3807.6C3026.62 3810.26 3031.65 3814.12 3034.69 3816.18C3037.73 3818.23 3042.18 3821.77 3044.59 3824.03C3048.76 3827.95 3062.22 3838.1 3094.82 3861.91C3108.72 3872.06 3109.58 3872.99 3111.89 3880.29C3114.58 3888.81 3115.06 3904.71 3113 3916.64C3112.27 3920.82 3110.98 3928.67 3110.11 3934.08C3108.37 3945 3105.15 3957.16 3102.32 3963.56C3101.29 3965.88 3097.44 3974.73 3093.76 3983.22C3090.08 3991.72 3086.33 3999.62 3085.44 4000.78C3084.54 4001.94 3080.71 4008.26 3076.93 4014.82C3073.15 4021.39 3067.82 4029.72 3065.08 4033.34C3062.34 4036.97 3057.87 4042.93 3055.16 4046.6C3045.99 4059 3024.74 4081.46 3010.69 4093.58C2997.06 4105.35 2972.71 4124.35 2971.26 4124.35C2970.86 4124.35 2967.23 4126.77 2963.2 4129.73C2955.09 4135.67 2946.56 4140.91 2933.51 4147.98C2928.76 4150.56 2923.93 4153.48 2922.77 4154.47C2919.27 4157.47 2882.7 4176.41 2860.8 4186.57C2852.68 4190.35 2843.74 4193.73 2835.44 4196.2C2832.73 4197 2829.88 4198.16 2829.1 4198.76C2826.85 4200.53 2810.39 4206.76 2797.41 4210.77C2790.83 4212.8 2782.47 4215.67 2778.85 4217.15C2775.21 4218.63 2770.91 4219.84 2769.27 4219.84C2767.63 4219.84 2764.58 4220.7 2762.49 4221.75C2760.39 4222.8 2755.52 4224.05 2751.64 4224.53C2747.77 4225.01 2739.85 4226.64 2734.04 4228.15C2728.22 4229.65 2717.13 4232.24 2709.39 4233.89C2701.64 4235.54 2693.22 4237.8 2690.68 4238.9C2688.13 4240 2683.38 4240.91 2680.11 4240.91C2676.85 4240.92 2666.58 4242.5 2657.3 4244.43C2648.03 4246.35 2637.88 4247.93 2634.77 4247.95C2631.65 4247.96 2625.3 4248.84 2620.66 4249.9C2616.01 4250.97 2607.89 4252.27 2602.62 4252.81C2597.35 4253.34 2591.01 4254.41 2588.53 4255.16C2586.06 4255.93 2574.53 4257.09 2562.91 4257.76C2470.7 4263.01 2455.17 4263.64 2434.04 4262.98C2393.34 4261.7 2320.91 4257.68 2313.61 4256.29C2309.74 4255.56 2300.55 4254.03 2293.19 4252.89C2285.83 4251.76 2277.6 4250.17 2274.89 4249.37C2272.18 4248.58 2267.67 4247.92 2264.86 4247.92C2262.06 4247.92 2252.11 4246.34 2242.76 4244.41C2233.41 4242.48 2223.23 4240.9 2220.13 4240.9C2217.04 4240.9 2212.72 4240.19 2210.54 4239.32C2206.45 4237.7 2194.98 4234.77 2182.63 4232.21C2178.75 4231.4 2171.46 4229.6 2166.43 4228.2C2161.39 4226.81 2154.11 4225.26 2150.23 4224.77C2146.36 4224.27 2140.97 4223.03 2138.26 4222C2135.55 4220.97 2123.82 4217.15 2112.2 4213.51C2091.9 4207.15 2088.71 4206.02 2077.63 4201.25C2074.88 4200.06 2068.23 4197.41 2062.84 4195.36C2057.46 4193.3 2047.28 4188.8 2040.23 4185.36C2033.18 4181.93 2026.82 4179.12 2026.11 4179.12C2024.83 4179.12 2019.79 4176.58 1996.71 4164.36C1965.56 4147.86 1912.81 4113.91 1902.58 4103.77C1900.9 4102.11 1893.78 4095.48 1886.76 4089.03C1873.45 4076.81 1842.21 4043.89 1841.21 4041.04C1840.89 4040.13 1837.41 4034.94 1833.46 4029.5C1829.52 4024.05 1825.39 4018.05 1824.28 4016.15C1820.06 4008.92 1808.7 3985.19 1807.85 3981.82C1807.36 3979.87 1806.4 3977.94 1805.71 3977.51C1805.02 3977.09 1804.45 3975.8 1804.45 3974.64C1804.45 3973.49 1802.64 3967.68 1800.43 3961.74C1793.6 3943.46 1793.11 3941.61 1790.31 3924.25C1787.4 3906.22 1787.04 3892.78 1789.19 3883.18C1790.93 3875.46 1794.85 3871.88 1834.74 3841.58C1846.36 3832.76 1857.13 3824.51 1858.68 3823.26C1864.45 3818.61 1885.91 3801.86 1893.94 3795.76C1898.5 3792.28 1903.26 3788.45 1904.5 3787.25C1905.73 3786.04 1911.78 3781.21 1917.92 3776.5C1924.08 3771.8 1931.85 3765.36 1935.21 3762.19C1938.57 3759.03 1941.83 3756.44 1942.46 3756.44C1943.09 3756.44 1946.71 3753.44 1950.49 3749.77C1954.27 3746.1 1959.88 3741.24 1962.95 3738.98C1966.03 3736.71 1973.93 3730.02 1980.51 3724.12C1987.1 3718.2 1994.33 3711.85 1996.59 3709.98C2002.56 3705.05 2014.36 3694.94 2019.25 3690.58C2021.57 3688.5 2028.54 3682.44 2034.74 3677.12C2040.94 3671.79 2047.63 3665.81 2049.63 3663.84C2051.62 3661.86 2058.18 3655.82 2064.21 3650.42C2070.25 3645.01 2077.49 3638.31 2080.31 3635.52C2083.14 3632.73 2094.64 3622.03 2105.87 3611.73C2131.74 3588.02 2139.31 3580.87 2157.81 3562.65C2166.04 3554.54 2181.65 3539.62 2192.5 3529.49C2213.29 3510.04 2356.91 3367.44 2398.86 3324.58C2412.44 3310.71 2426.67 3295.56 2430.5 3290.94C2440.25 3279.12 2447.92 3271.98 2450.87 3271.98ZM2289.2 3952.98C2278.15 3952.98 2269.2 3961.93 2269.2 3972.98V4082.98C2269.2 4094.02 2278.15 4102.98 2289.2 4102.98H2409.2C2420.24 4102.98 2429.2 4094.02 2429.2 4082.98V3952.98H2289.2ZM2469.2 3952.98V4082.98C2469.2 4094.02 2478.15 4102.98 2489.2 4102.98H2609.2C2620.24 4102.98 2629.2 4094.02 2629.2 4082.98V3972.98C2629.2 3961.93 2620.24 3952.98 2609.2 3952.98H2469.2ZM2289.2 3772.98C2278.15 3772.98 2269.2 3781.93 2269.2 3792.98V3902.98C2269.2 3914.02 2278.15 3922.98 2289.2 3922.98H2429.2V3792.98C2429.2 3781.93 2420.24 3772.98 2409.2 3772.98H2289.2ZM2489.2 3772.98C2478.15 3772.98 2469.2 3781.93 2469.2 3792.98V3922.98H2609.2C2620.24 3922.98 2629.2 3914.02 2629.2 3902.98V3792.98C2629.2 3781.93 2620.24 3772.98 2609.2 3772.98H2489.2Z" fill="url(#paint8_linear_145_46)"/>
<path d="M8231.2 2743.42C8039.27 2775.39 7932.51 2904.04 7932.51 3104.82C7932.51 3216.37 7960.47 3298.17 8022.75 3365.09C8062.79 3408.97 8104.73 3434.99 8167.65 3455.07C8228.02 3475.15 8538.15 3475.89 8599.79 3455.81C8774.55 3400.79 8858.44 3256.52 8834.93 3050.54C8821.58 2930.07 8770.74 2845.3 8680.5 2793.24C8604.87 2750.11 8569.92 2742.68 8409.14 2740.44C8330.33 2738.96 8250.26 2740.44 8231.2 2743.42ZM8582 2899.58C8656.99 2933.79 8693.21 3012.61 8686.85 3127.87C8681.77 3231.24 8641.1 3293.7 8561.66 3322.7C8510.18 3341.3 8262.97 3341.3 8210.86 3321.96C8163.2 3304.86 8124.43 3269.16 8104.73 3223.8C8090.11 3191.08 8088.21 3178.44 8088.21 3104.82C8088.21 3011.12 8097.74 2981.38 8139.68 2937.51C8190.52 2886.2 8224.84 2878.76 8405.96 2880.99C8533.7 2882.48 8548.95 2883.96 8582 2899.58Z" fill="url(#paint9_linear_145_46)"/>
<path d="M5088.61 2754.57C5078.44 2759.78 5063.83 2772.42 5056.2 2782.09C5048.58 2791.75 4969.14 2928.58 4878.89 3086.23C4788.65 3243.88 4703.49 3391.12 4690.15 3413.43C4676.8 3435.74 4666 3456.56 4666 3459.53C4666 3463.25 4702.86 3465.48 4747.34 3465.48H4829.33L4979.94 3197.77C5063.19 3050.54 5133.73 2927.84 5136.91 2925.61C5142.63 2921.89 5365.06 3309.32 5365.06 3323.45C5365.06 3329.4 5332.65 3331.63 5262.11 3331.63C5204.91 3331.63 5148.35 3335.35 5135 3339.06C5107.04 3348.73 5080.35 3379.22 5057.47 3429.04L5040.31 3465.48H5330.11C5534.74 3465.48 5618.63 3463.25 5616.08 3457.3C5613.54 3452.84 5570.33 3379.22 5520.12 3292.96C5469.28 3206.7 5386.67 3061.69 5335.19 2971.71C5237.96 2798.45 5220.16 2771.68 5192.2 2754.57C5170.59 2741.19 5114.03 2741.19 5088.61 2754.57Z" fill="url(#paint10_linear_145_46)"/>
<path d="M5678.36 2751.6C5658.03 2761.27 5651.04 2782.09 5651.04 2831.91C5651.04 2866.86 5653.58 2877.27 5661.84 2880.99C5667.56 2883.96 5741.28 2885.45 5825.8 2884.71L5978.32 2883.96L5980.23 3174.72L5981.5 3465.48H6054.58H6127.67V3175.47C6127.67 2948.66 6129.57 2885.45 6135.93 2885.45C6139.74 2884.71 6199.48 2884.71 6267.48 2885.45C6448.6 2885.45 6465.12 2878.01 6469.57 2792.5L6472.11 2744.16L6082.55 2744.91C5867.74 2744.91 5685.99 2747.88 5678.36 2751.6Z" fill="url(#paint11_linear_145_46)"/>
<path d="M6688.82 2751.6C6681.19 2755.32 6673.57 2764.24 6671.66 2771.68C6670.39 2779.11 6667.85 2937.51 6666.58 3123.41L6664.67 3461.76L6739.66 3463.99L6814.01 3466.22V3212.65C6814.01 3073.59 6816.56 2959.81 6819.1 2959.81C6821.64 2959.81 6892.18 3051.28 6974.8 3163.57C7115.88 3353.94 7127.32 3368.07 7150.83 3372.53C7193.41 3380.71 7227.73 3370.3 7251.24 3341.3C7262.68 3327.17 7330.68 3235.7 7401.86 3137.54C7473.67 3040.13 7535.32 2958.33 7538.49 2956.1C7542.94 2953.12 7544.85 3041.61 7544.85 3208.19V3465.48H7621.11H7697.37L7696.1 3106.31L7694.19 2747.88H7614.75C7515.61 2747.88 7513.07 2749.37 7434.91 2859.42C7327.5 3011.12 7180.7 3205.96 7176.25 3203.72C7173.08 3202.24 7113.34 3121.18 7042.8 3023.02C6873.12 2786.55 6854.69 2764.24 6822.91 2753.09C6793.04 2742.68 6709.79 2741.93 6688.82 2751.6Z" fill="url(#paint12_linear_145_46)"/>
<path d="M9200.34 2754.57C9153.95 2767.96 9120.91 2790.27 9091.04 2827.45C9058.63 2869.09 9047.82 2904.79 9047.82 2974.69C9047.82 3072.1 9084.68 3129.36 9166.03 3156.13C9194.62 3165.8 9240.38 3168.03 9407.52 3168.77C9643.93 3168.77 9669.35 3171.75 9691.59 3202.24C9711.93 3229.75 9708.75 3279.57 9683.97 3308.58L9667.44 3327.91L9404.98 3331.63C9173.02 3334.6 9140.61 3336.83 9123.45 3347.99C9105.02 3359.89 9051 3442.43 9051 3458.79C9051 3468.46 9637.57 3466.97 9683.33 3457.3C9785.01 3435.74 9838.39 3368.81 9844.11 3257.27C9847.29 3187.36 9831.4 3136.05 9792.64 3097.39C9743.7 3048.31 9734.81 3046.82 9473.61 3042.36C9302.03 3039.38 9234.66 3035.66 9224.49 3028.23C9202.89 3014.1 9190.81 2988.82 9190.81 2958.33C9190.81 2920.4 9211.78 2893.63 9248.01 2884.71C9263.9 2881.73 9385.28 2878.76 9518.1 2878.02C9697.95 2878.02 9763.4 2875.78 9775.48 2868.35C9797.72 2855.71 9814.24 2814.06 9812.34 2777.63L9810.43 2747.88L9521.28 2746.39C9309.02 2745.65 9223.86 2747.88 9200.34 2754.57Z" fill="url(#paint13_linear_145_46)"/>
<path d="M6234.4 3843.2C6231.73 3863.2 6224.67 3880.4 6213.2 3894.8C6201.73 3908.93 6186.4 3919.86 6167.2 3927.6C6148.27 3935.06 6126.13 3938.8 6100.8 3938.8C6078.93 3938.8 6058.8 3935.86 6040.4 3930C6022.27 3924.13 6006.4 3915.6 5992.8 3904.4C5979.47 3892.93 5969.07 3878.93 5961.6 3862.4C5954.4 3845.6 5950.8 3826.4 5950.8 3804.8C5950.8 3782.93 5954.4 3763.73 5961.6 3747.2C5969.07 3730.66 5979.47 3716.66 5992.8 3705.2C6006.4 3693.46 6022.27 3684.66 6040.4 3678.8C6058.8 3672.93 6078.93 3670 6100.8 3670C6126.4 3670 6148.67 3673.86 6167.6 3681.6C6186.8 3689.33 6202.13 3700.4 6213.6 3714.8C6225.07 3729.2 6232 3746.53 6234.4 3766.8H6190.4C6186.67 3754.8 6180.8 3744.66 6172.8 3736.4C6164.8 3727.86 6154.67 3721.33 6142.4 3716.8C6130.4 3712.26 6116.53 3710 6100.8 3710C6081.07 3710 6063.33 3713.73 6047.6 3721.2C6031.87 3728.4 6019.47 3739.06 6010.4 3753.2C6001.6 3767.06 5997.2 3784.26 5997.2 3804.8C5997.2 3825.06 6001.6 3842.26 6010.4 3856.4C6019.47 3870.26 6031.87 3880.8 6047.6 3888C6063.33 3895.2 6081.07 3898.8 6100.8 3898.8C6116.53 3898.8 6130.4 3896.66 6142.4 3892.4C6154.4 3887.86 6164.4 3881.46 6172.4 3873.2C6180.4 3864.66 6186.27 3854.66 6190 3843.2H6234.4ZM6612.19 3674.8V3894.8H6773.79V3934H6566.59V3674.8H6612.19ZM7149.61 3823.6V3894.8H7331.61V3934H7104.01V3674.8H7331.21V3714H7149.61V3786H7298.41V3823.6H7149.61ZM7702.83 3873.2V3834.4H7857.23V3873.2H7702.83ZM7642.83 3934L7756.03 3674.8H7804.83L7918.83 3934H7869.63L7770.43 3700H7790.43L7691.63 3934H7642.83ZM8477.05 3886.8L8463.45 3892V3674.8H8508.65V3934H8463.45L8269.05 3723.2L8283.05 3718V3934H8237.45V3674.8H8283.05L8477.05 3886.8Z" fill="url(#paint14_linear_145_46)"/>
<line x1="4402" y1="3796.5" x2="5633" y2="3796.5" stroke="url(#paint15_linear_145_46)" stroke-width="15"/>
<line x1="8878" y1="3796.5" x2="10109" y2="3796.5" stroke="url(#paint16_linear_145_46)" stroke-width="15"/>
<path d="M4449.8 4150.4H4545V4169.8H4449.8V4150.4ZM4541.8 4095.4H4564.4V4225H4541.8V4095.4ZM4429.6 4095.4H4452.4V4225H4429.6V4095.4ZM4699.42 4095.4H4722.22V4225H4699.42V4095.4ZM4924.54 4227.4C4913.47 4227.4 4903.47 4225.93 4894.54 4223C4885.61 4220.07 4877.94 4215.8 4871.54 4210.2C4865.27 4204.47 4860.41 4197.47 4856.94 4189.2C4853.61 4180.93 4851.94 4171.6 4851.94 4161.2C4851.94 4150.67 4853.74 4141.2 4857.34 4132.8C4860.94 4124.4 4866.07 4117.27 4872.74 4111.4C4879.41 4105.4 4887.34 4100.87 4896.54 4097.8C4905.74 4094.6 4915.87 4093 4926.94 4093C4939.87 4093 4951.07 4095 4960.54 4099C4970.01 4103 4977.54 4108.6 4983.14 4115.8C4988.74 4122.87 4991.94 4131.27 4992.74 4141H4971.74C4970.01 4135.27 4967.14 4130.33 4963.14 4126.2C4959.27 4122.07 4954.27 4118.87 4948.14 4116.6C4942.14 4114.2 4935.07 4113 4926.94 4113C4916.27 4113 4907.01 4115.07 4899.14 4119.2C4891.41 4123.2 4885.47 4128.87 4881.34 4136.2C4877.21 4143.4 4875.14 4151.73 4875.14 4161.2C4875.14 4170.67 4876.94 4178.87 4880.54 4185.8C4884.27 4192.6 4889.87 4197.93 4897.34 4201.8C4904.81 4205.53 4914.07 4207.4 4925.14 4207.4C4933.67 4207.4 4941.14 4206.13 4947.54 4203.6C4954.07 4200.93 4959.47 4197.27 4963.74 4192.6C4968.01 4187.93 4971.01 4182.53 4972.74 4176.4L4982.94 4174C4981.07 4191.2 4974.94 4204.4 4964.54 4213.6C4954.27 4222.8 4940.94 4227.4 4924.54 4227.4ZM4977.54 4225C4977.54 4220.73 4977.74 4215.93 4978.14 4210.6C4978.54 4205.13 4979.01 4199.6 4979.54 4194C4980.21 4188.27 4980.81 4183.13 4981.34 4178.6H4927.74V4162.2H4997.74V4225H4977.54ZM5129.49 4095.4H5152.29V4225H5129.49V4095.4ZM5310.02 4169.8V4205.4H5401.02V4225H5287.22V4095.4H5400.82V4115H5310.02V4151H5384.42V4169.8H5310.02ZM5648.42 4201.4L5641.62 4204V4095.4H5664.22V4225H5641.62L5544.42 4119.6L5551.42 4117V4225H5528.62V4095.4H5551.42L5648.42 4201.4ZM5799.22 4095.4H5822.02V4225H5799.22V4095.4ZM5953.74 4095.4H6080.54V4115L5974.54 4212.2L5971.94 4205.4H6080.54V4225H5953.74V4205.4L6059.94 4108.2L6062.34 4115H5953.74V4095.4ZM6226.51 4194.6V4175.2H6303.71V4194.6H6226.51ZM6196.51 4225L6253.11 4095.4H6277.51L6334.51 4225H6309.91L6260.31 4108H6270.31L6220.91 4225H6196.51ZM6499.95 4248.4C6500.22 4249.2 6500.62 4250.27 6501.15 4251.6C6501.82 4253.07 6502.88 4254.33 6504.35 4255.4C6505.95 4256.6 6508.28 4257.2 6511.35 4257.2C6514.95 4257.2 6517.42 4256.33 6518.75 4254.6C6520.08 4252.87 6520.75 4251 6520.75 4249C6520.75 4247.93 6520.42 4246.67 6519.75 4245.2C6519.22 4243.73 6518.02 4242.27 6516.15 4240.8C6514.28 4239.33 6511.35 4238.07 6507.35 4237L6520.55 4232C6524.02 4232.67 6527.15 4233.8 6529.95 4235.4C6532.88 4237 6535.15 4239.13 6536.75 4241.8C6538.48 4244.47 6539.35 4247.8 6539.35 4251.8C6539.35 4257 6537.02 4261.67 6532.35 4265.8C6527.82 4270.07 6520.82 4272.2 6511.35 4272.2C6505.35 4272.2 6500.22 4271.07 6495.95 4268.8C6491.68 4266.53 6488.48 4263.53 6486.35 4259.8C6484.22 4256.2 6483.42 4252.4 6483.95 4248.4H6499.95ZM6507.35 4221.6H6526.95V4238.6L6507.35 4237V4221.6ZM6584.95 4179.6C6583.62 4189.6 6580.08 4198.2 6574.35 4205.4C6568.62 4212.47 6560.95 4217.93 6551.35 4221.8C6541.88 4225.53 6530.82 4227.4 6518.15 4227.4C6507.22 4227.4 6497.15 4225.93 6487.95 4223C6478.88 4220.07 6470.95 4215.8 6464.15 4210.2C6457.48 4204.47 6452.28 4197.47 6448.55 4189.2C6444.95 4180.8 6443.15 4171.2 6443.15 4160.4C6443.15 4149.47 6444.95 4139.87 6448.55 4131.6C6452.28 4123.33 6457.48 4116.33 6464.15 4110.6C6470.95 4104.73 6478.88 4100.33 6487.95 4097.4C6497.15 4094.47 6507.22 4093 6518.15 4093C6530.95 4093 6542.08 4094.93 6551.55 4098.8C6561.15 4102.67 6568.82 4108.2 6574.55 4115.4C6580.28 4122.6 6583.75 4131.27 6584.95 4141.4H6562.95C6561.08 4135.4 6558.15 4130.33 6554.15 4126.2C6550.15 4121.93 6545.08 4118.67 6538.95 4116.4C6532.95 4114.13 6526.02 4113 6518.15 4113C6508.28 4113 6499.42 4114.87 6491.55 4118.6C6483.68 4122.2 6477.48 4127.53 6472.95 4134.6C6468.55 4141.53 6466.35 4150.13 6466.35 4160.4C6466.35 4170.53 6468.55 4179.13 6472.95 4186.2C6477.48 4193.13 6483.68 4198.4 6491.55 4202C6499.42 4205.6 6508.28 4207.4 6518.15 4207.4C6526.02 4207.4 6532.95 4206.33 6538.95 4204.2C6544.95 4201.93 6549.95 4198.73 6553.95 4194.6C6557.95 4190.33 6560.88 4185.33 6562.75 4179.6H6584.95ZM6723.58 4194.6V4175.2H6800.78V4194.6H6723.58ZM6693.58 4225L6750.18 4095.4H6774.58L6831.58 4225H6806.98L6757.38 4108H6767.38L6717.98 4225H6693.58ZM6778.38 4078.8C6774.64 4078.8 6771.31 4078.2 6768.38 4077C6765.58 4075.8 6762.91 4074.4 6760.38 4072.8C6757.98 4071.07 6755.51 4069.6 6752.98 4068.4C6750.58 4067.07 6747.84 4066.4 6744.78 4066.4C6741.98 4066.4 6739.78 4067.07 6738.18 4068.4C6736.71 4069.6 6735.58 4071.2 6734.78 4073.2C6733.98 4075.07 6733.31 4076.93 6732.78 4078.8H6716.18C6716.98 4073.87 6718.44 4069.33 6720.58 4065.2C6722.84 4061.07 6725.78 4057.73 6729.38 4055.2C6733.11 4052.53 6737.51 4051.2 6742.58 4051.2C6746.44 4051.2 6749.84 4051.87 6752.78 4053.2C6755.84 4054.4 6758.64 4055.87 6761.18 4057.6C6763.71 4059.2 6766.11 4060.67 6768.38 4062C6770.78 4063.2 6773.31 4063.8 6775.98 4063.8C6778.78 4063.8 6780.98 4063.13 6782.58 4061.8C6784.18 4060.47 6785.38 4058.87 6786.18 4057C6786.98 4055 6787.64 4053.13 6788.18 4051.4H6804.78C6803.98 4056.2 6802.44 4060.73 6800.18 4065C6798.04 4069.13 6795.11 4072.47 6791.38 4075C6787.78 4077.53 6783.44 4078.8 6778.38 4078.8ZM7015.42 4227.4C7000.22 4227.4 6986.95 4224.67 6975.62 4219.2C6964.42 4213.73 6955.69 4206 6949.42 4196C6943.29 4186 6940.22 4174.07 6940.22 4160.2C6940.22 4146.33 6943.29 4134.4 6949.42 4124.4C6955.69 4114.27 6964.42 4106.53 6975.62 4101.2C6986.95 4095.73 7000.22 4093 7015.42 4093C7030.75 4093 7044.02 4095.73 7055.22 4101.2C7066.42 4106.53 7075.09 4114.27 7081.22 4124.4C7087.49 4134.4 7090.62 4146.33 7090.62 4160.2C7090.62 4174.07 7087.49 4186 7081.22 4196C7075.09 4206 7066.42 4213.73 7055.22 4219.2C7044.02 4224.67 7030.75 4227.4 7015.42 4227.4ZM7015.42 4207.4C7025.55 4207.4 7034.49 4205.67 7042.22 4202.2C7049.95 4198.73 7056.02 4193.53 7060.42 4186.6C7064.95 4179.53 7067.22 4170.73 7067.22 4160.2C7067.22 4149.8 7064.95 4141.13 7060.42 4134.2C7056.02 4127.13 7049.95 4121.87 7042.22 4118.4C7034.49 4114.8 7025.55 4113 7015.42 4113C7005.42 4113 6996.49 4114.8 6988.62 4118.4C6980.75 4121.87 6974.55 4127.13 6970.02 4134.2C6965.49 4141.13 6963.22 4149.8 6963.22 4160.2C6963.22 4170.73 6965.49 4179.53 6970.02 4186.6C6974.55 4193.53 6980.75 4198.73 6988.62 4202.2C6996.49 4205.67 7005.42 4207.4 7015.42 4207.4ZM7425 4095.4C7439 4095.4 7450.74 4097.13 7460.2 4100.6C7469.67 4104.07 7477.2 4108.8 7482.8 4114.8C7488.4 4120.67 7492.4 4127.47 7494.8 4135.2C7497.34 4142.93 7498.6 4151.07 7498.6 4159.6C7498.6 4168.27 7497.27 4176.53 7494.6 4184.4C7491.94 4192.27 7487.67 4199.27 7481.8 4205.4C7476.07 4211.4 7468.54 4216.2 7459.2 4219.8C7449.87 4223.27 7438.47 4225 7425 4225H7362.8V4095.4H7425ZM7385.6 4205H7424.8C7434.67 4205 7442.87 4203.73 7449.4 4201.2C7455.94 4198.67 7461.14 4195.27 7465 4191C7468.87 4186.6 7471.6 4181.73 7473.2 4176.4C7474.8 4170.93 7475.6 4165.33 7475.6 4159.6C7475.6 4153.87 7474.8 4148.4 7473.2 4143.2C7471.6 4137.87 7468.87 4133.13 7465 4129C7461.14 4124.73 7455.94 4121.4 7449.4 4119C7442.87 4116.47 7434.67 4115.2 7424.8 4115.2H7385.6V4205ZM7647.13 4169.8V4205.4H7738.13V4225H7624.33V4095.4H7737.93V4115H7647.13V4151H7721.53V4169.8H7647.13ZM8034.63 4169.8V4205.4H8125.63V4225H8011.83V4095.4H8125.43V4115H8034.63V4151H8109.03V4169.8H8034.63ZM8244.63 4182H8266.83C8267.37 4186.93 8269.3 4191.4 8272.63 4195.4C8276.1 4199.27 8280.63 4202.33 8286.23 4204.6C8291.97 4206.73 8298.5 4207.8 8305.83 4207.8C8312.37 4207.8 8317.77 4207 8322.03 4205.4C8326.3 4203.8 8329.43 4201.6 8331.43 4198.8C8333.57 4195.87 8334.63 4192.47 8334.63 4188.6C8334.63 4184.73 8333.37 4181.73 8330.83 4179.6C8328.43 4177.33 8324.7 4175.47 8319.63 4174C8314.57 4172.4 8308.1 4170.87 8300.23 4169.4C8293.7 4168.2 8287.37 4166.6 8281.23 4164.6C8275.1 4162.6 8269.57 4160.07 8264.63 4157C8259.83 4153.93 8256.03 4150.2 8253.23 4145.8C8250.43 4141.27 8249.03 4135.93 8249.03 4129.8C8249.03 4122.87 8250.97 4116.6 8254.83 4111C8258.83 4105.4 8264.7 4101 8272.43 4097.8C8280.17 4094.6 8289.57 4093 8300.63 4093C8317.57 4093 8330.5 4096.93 8339.43 4104.8C8348.37 4112.53 8352.7 4123.07 8352.43 4136.4H8330.63C8330.23 4128 8327.17 4121.93 8321.43 4118.2C8315.7 4114.47 8308.43 4112.6 8299.63 4112.6C8291.77 4112.6 8285.17 4114 8279.83 4116.8C8274.5 4119.6 8271.83 4124.13 8271.83 4130.4C8271.83 4133.07 8272.43 4135.4 8273.63 4137.4C8274.97 4139.27 8277.1 4141 8280.03 4142.6C8282.97 4144.07 8286.97 4145.53 8292.03 4147C8297.23 4148.33 8303.57 4149.8 8311.03 4151.4C8317.43 4152.47 8323.43 4153.93 8329.03 4155.8C8334.63 4157.67 8339.5 4160 8343.63 4162.8C8347.9 4165.6 8351.23 4169.2 8353.63 4173.6C8356.03 4178 8357.23 4183.4 8357.23 4189.8C8357.23 4197.13 8355.37 4203.67 8351.63 4209.4C8347.9 4215 8342.17 4219.47 8334.43 4222.8C8326.83 4226 8316.97 4227.6 8304.83 4227.6C8295.63 4227.6 8287.57 4226.53 8280.63 4224.4C8273.83 4222.13 8268.03 4219.27 8263.23 4215.8C8258.43 4212.2 8254.57 4208.33 8251.63 4204.2C8248.83 4200.07 8246.83 4196.07 8245.63 4192.2C8244.57 4188.2 8244.23 4184.8 8244.63 4182ZM8468.77 4095.4H8593.17V4115H8468.77V4095.4ZM8519.77 4112.6H8542.37V4225H8519.77V4112.6ZM8772.45 4227.4C8757.25 4227.4 8743.98 4224.67 8732.65 4219.2C8721.45 4213.73 8712.72 4206 8706.45 4196C8700.32 4186 8697.25 4174.07 8697.25 4160.2C8697.25 4146.33 8700.32 4134.4 8706.45 4124.4C8712.72 4114.27 8721.45 4106.53 8732.65 4101.2C8743.98 4095.73 8757.25 4093 8772.45 4093C8787.78 4093 8801.05 4095.73 8812.25 4101.2C8823.45 4106.53 8832.12 4114.27 8838.25 4124.4C8844.52 4134.4 8847.65 4146.33 8847.65 4160.2C8847.65 4174.07 8844.52 4186 8838.25 4196C8832.12 4206 8823.45 4213.73 8812.25 4219.2C8801.05 4224.67 8787.78 4227.4 8772.45 4227.4ZM8772.45 4207.4C8782.58 4207.4 8791.52 4205.67 8799.25 4202.2C8806.98 4198.73 8813.05 4193.53 8817.45 4186.6C8821.98 4179.53 8824.25 4170.73 8824.25 4160.2C8824.25 4149.8 8821.98 4141.13 8817.45 4134.2C8813.05 4127.13 8806.98 4121.87 8799.25 4118.4C8791.52 4114.8 8782.58 4113 8772.45 4113C8762.45 4113 8753.52 4114.8 8745.65 4118.4C8737.78 4121.87 8731.58 4127.13 8727.05 4134.2C8722.52 4141.13 8720.25 4149.8 8720.25 4160.2C8720.25 4170.73 8722.52 4179.53 8727.05 4186.6C8731.58 4193.53 8737.78 4198.73 8745.65 4202.2C8753.52 4205.67 8762.45 4207.4 8772.45 4207.4ZM9087.34 4095.4V4115H8996.54V4152.6H9070.94V4171.4H8996.54V4225H8973.74V4095.4H9087.34ZM9212.25 4194.6V4175.2H9289.45V4194.6H9212.25ZM9182.25 4225L9238.85 4095.4H9263.25L9320.25 4225H9295.65L9246.05 4108H9256.05L9206.65 4225H9182.25ZM9501.76 4095.4C9515.76 4095.4 9527.49 4097.13 9536.96 4100.6C9546.43 4104.07 9553.96 4108.8 9559.56 4114.8C9565.16 4120.67 9569.16 4127.47 9571.56 4135.2C9574.09 4142.93 9575.36 4151.07 9575.36 4159.6C9575.36 4168.27 9574.03 4176.53 9571.36 4184.4C9568.69 4192.27 9564.43 4199.27 9558.56 4205.4C9552.83 4211.4 9545.29 4216.2 9535.96 4219.8C9526.63 4223.27 9515.23 4225 9501.76 4225H9439.56V4095.4H9501.76ZM9462.36 4205H9501.56C9511.43 4205 9519.63 4203.73 9526.16 4201.2C9532.69 4198.67 9537.89 4195.27 9541.76 4191C9545.63 4186.6 9548.36 4181.73 9549.96 4176.4C9551.56 4170.93 9552.36 4165.33 9552.36 4159.6C9552.36 4153.87 9551.56 4148.4 9549.96 4143.2C9548.36 4137.87 9545.63 4133.13 9541.76 4129C9537.89 4124.73 9532.69 4121.4 9526.16 4119C9519.63 4116.47 9511.43 4115.2 9501.56 4115.2H9462.36V4205ZM9771.08 4227.4C9755.88 4227.4 9742.62 4224.67 9731.28 4219.2C9720.08 4213.73 9711.35 4206 9705.08 4196C9698.95 4186 9695.88 4174.07 9695.88 4160.2C9695.88 4146.33 9698.95 4134.4 9705.08 4124.4C9711.35 4114.27 9720.08 4106.53 9731.28 4101.2C9742.62 4095.73 9755.88 4093 9771.08 4093C9786.42 4093 9799.68 4095.73 9810.88 4101.2C9822.08 4106.53 9830.75 4114.27 9836.88 4124.4C9843.15 4134.4 9846.28 4146.33 9846.28 4160.2C9846.28 4174.07 9843.15 4186 9836.88 4196C9830.75 4206 9822.08 4213.73 9810.88 4219.2C9799.68 4224.67 9786.42 4227.4 9771.08 4227.4ZM9771.08 4207.4C9781.22 4207.4 9790.15 4205.67 9797.88 4202.2C9805.62 4198.73 9811.68 4193.53 9816.08 4186.6C9820.62 4179.53 9822.88 4170.73 9822.88 4160.2C9822.88 4149.8 9820.62 4141.13 9816.08 4134.2C9811.68 4127.13 9805.62 4121.87 9797.88 4118.4C9790.15 4114.8 9781.22 4113 9771.08 4113C9761.08 4113 9752.15 4114.8 9744.28 4118.4C9736.42 4121.87 9730.22 4127.13 9725.68 4134.2C9721.15 4141.13 9718.88 4149.8 9718.88 4160.2C9718.88 4170.73 9721.15 4179.53 9725.68 4186.6C9730.22 4193.53 9736.42 4198.73 9744.28 4202.2C9752.15 4205.67 9761.08 4207.4 9771.08 4207.4ZM9963.77 4182H9985.97C9986.51 4186.93 9988.44 4191.4 9991.77 4195.4C9995.24 4199.27 9999.77 4202.33 10005.4 4204.6C10011.1 4206.73 10017.6 4207.8 10025 4207.8C10031.5 4207.8 10036.9 4207 10041.2 4205.4C10045.4 4203.8 10048.6 4201.6 10050.6 4198.8C10052.7 4195.87 10053.8 4192.47 10053.8 4188.6C10053.8 4184.73 10052.5 4181.73 10050 4179.6C10047.6 4177.33 10043.8 4175.47 10038.8 4174C10033.7 4172.4 10027.2 4170.87 10019.4 4169.4C10012.8 4168.2 10006.5 4166.6 10000.4 4164.6C9994.24 4162.6 9988.71 4160.07 9983.77 4157C9978.97 4153.93 9975.17 4150.2 9972.37 4145.8C9969.57 4141.27 9968.17 4135.93 9968.17 4129.8C9968.17 4122.87 9970.11 4116.6 9973.97 4111C9977.97 4105.4 9983.84 4101 9991.57 4097.8C9999.31 4094.6 10008.7 4093 10019.8 4093C10036.7 4093 10049.6 4096.93 10058.6 4104.8C10067.5 4112.53 10071.8 4123.07 10071.6 4136.4H10049.8C10049.4 4128 10046.3 4121.93 10040.6 4118.2C10034.8 4114.47 10027.6 4112.6 10018.8 4112.6C10010.9 4112.6 10004.3 4114 9998.97 4116.8C9993.64 4119.6 9990.97 4124.13 9990.97 4130.4C9990.97 4133.07 9991.57 4135.4 9992.77 4137.4C9994.11 4139.27 9996.24 4141 9999.17 4142.6C10002.1 4144.07 10006.1 4145.53 10011.2 4147C10016.4 4148.33 10022.7 4149.8 10030.2 4151.4C10036.6 4152.47 10042.6 4153.93 10048.2 4155.8C10053.8 4157.67 10058.6 4160 10062.8 4162.8C10067 4165.6 10070.4 4169.2 10072.8 4173.6C10075.2 4178 10076.4 4183.4 10076.4 4189.8C10076.4 4197.13 10074.5 4203.67 10070.8 4209.4C10067 4215 10061.3 4219.47 10053.6 4222.8C10046 4226 10036.1 4227.6 10024 4227.6C10014.8 4227.6 10006.7 4226.53 9999.77 4224.4C9992.97 4222.13 9987.17 4219.27 9982.37 4215.8C9977.57 4212.2 9973.71 4208.33 9970.77 4204.2C9967.97 4200.07 9965.97 4196.07 9964.77 4192.2C9963.71 4188.2 9963.37 4184.8 9963.77 4182Z" fill="#088291"/>
<defs>
<filter id="filter0_d_145_46" x="1739.2" y="2407" width="1063.15" height="1299.98" filterUnits="userSpaceOnUse" color-interpolation-filters="sRGB">
<feFlood flood-opacity="0" result="BackgroundImageFix"/>
<feColorMatrix in="SourceAlpha" type="matrix" values="0 0 0 0 0 0 0 0 0 0 0 0 0 0 0 0 0 0 127 0" result="hardAlpha"/>
<feOffset dy="4"/>
<feGaussianBlur stdDeviation="10"/>
<feComposite in2="hardAlpha" operator="out"/>
<feColorMatrix type="matrix" values="0 0 0 0 0.0313726 0 0 0 0 0.584314 0 0 0 0 0.65098 0 0 0 0.5 0"/>
<feBlend mode="normal" in2="BackgroundImageFix" result="effect1_dropShadow_145_46"/>
<feBlend mode="normal" in="SourceGraphic" in2="effect1_dropShadow_145_46" result="shape"/>
</filter>
<filter id="filter1_d_145_46" x="1233.2" y="3889.98" width="1259.64" height="659.99" filterUnits="userSpaceOnUse" color-interpolation-filters="sRGB">
<feFlood flood-opacity="0" result="BackgroundImageFix"/>
<feColorMatrix in="SourceAlpha" type="matrix" values="0 0 0 0 0 0 0 0 0 0 0 0 0 0 0 0 0 0 127 0" result="hardAlpha"/>
<feOffset dx="4" dy="-4"/>
<feGaussianBlur stdDeviation="10"/>
<feComposite in2="hardAlpha" operator="out"/>
<feColorMatrix type="matrix" values="0 0 0 0 0.0313726 0 0 0 0 0.584314 0 0 0 0 0.65098 0 0 0 0.5 0"/>
<feBlend mode="normal" in2="BackgroundImageFix" result="effect1_dropShadow_145_46"/>
<feBlend mode="normal" in="SourceGraphic" in2="effect1_dropShadow_145_46" result="shape"/>
</filter>
<filter id="filter2_d_145_46" x="2979.2" y="3412.98" width="687.534" height="1132.5" filterUnits="userSpaceOnUse" color-interpolation-filters="sRGB">
<feFlood flood-opacity="0" result="BackgroundImageFix"/>
<feColorMatrix in="SourceAlpha" type="matrix" values="0 0 0 0 0 0 0 0 0 0 0 0 0 0 0 0 0 0 127 0" result="hardAlpha"/>
<feOffset dx="-10"/>
<feGaussianBlur stdDeviation="10"/>
<feComposite in2="hardAlpha" operator="out"/>
<feColorMatrix type="matrix" values="0 0 0 0 0.0313726 0 0 0 0 0.584314 0 0 0 0 0.65098 0 0 0 0.5 0"/>
<feBlend mode="normal" in2="BackgroundImageFix" result="effect1_dropShadow_145_46"/>
<feBlend mode="normal" in="SourceGraphic" in2="effect1_dropShadow_145_46" result="shape"/>
</filter>
<linearGradient id="paint0_linear_145_46" x1="2959.72" y1="3135.59" x2="3040.2" y2="3163.5" gradientUnits="userSpaceOnUse">
<stop stop-color="#0CA2B1"/>
<stop offset="1" stop-color="#087489"/>
</linearGradient>
<linearGradient id="paint1_linear_145_46" x1="2449.28" y1="2991.3" x2="2613.2" y2="3182" gradientUnits="userSpaceOnUse">
<stop stop-color="#0CA2B1"/>
<stop offset="1" stop-color="#087489"/>
</linearGradient>
<linearGradient id="paint2_linear_145_46" x1="2869.2" y1="2633" x2="1804.21" y2="3583" gradientUnits="userSpaceOnUse">
<stop stop-color="#0895A6"/>
<stop offset="1" stop-color="#09BFC0"/>
</linearGradient>
<linearGradient id="paint3_linear_145_46" x1="2619.2" y1="2398" x2="1759.21" y2="3597.99" gradientUnits="userSpaceOnUse">
<stop stop-color="#09BFC0"/>
<stop offset="1" stop-color="#48D9CA"/>
</linearGradient>
<linearGradient id="paint4_linear_145_46" x1="1459.2" y1="3742.98" x2="2449.19" y2="4447.98" gradientUnits="userSpaceOnUse">
<stop stop-color="#088291"/>
<stop offset="1" stop-color="#48D9CA"/>
</linearGradient>
<linearGradient id="paint5_linear_145_46" x1="1172.7" y1="3914" x2="2034.7" y2="4585" gradientUnits="userSpaceOnUse">
<stop stop-color="#0895A6"/>
<stop offset="1" stop-color="#48D9CA"/>
</linearGradient>
<linearGradient id="paint6_linear_145_46" x1="2994.2" y1="3422.98" x2="2914.2" y2="4392.97" gradientUnits="userSpaceOnUse">
<stop offset="0.269388" stop-color="#09BFC0"/>
<stop offset="1" stop-color="#088291"/>
</linearGradient>
<linearGradient id="paint7_linear_145_46" x1="3099.2" y1="3467.98" x2="3394.19" y2="4537.97" gradientUnits="userSpaceOnUse">
<stop stop-color="#48D9CA"/>
<stop offset="1" stop-color="#09BFC0"/>
</linearGradient>
<linearGradient id="paint8_linear_145_46" x1="1884.19" y1="3567.99" x2="3109.19" y2="3882.99" gradientUnits="userSpaceOnUse">
<stop stop-color="#09BFC0"/>
<stop offset="0.5" stop-color="#0895A6"/>
<stop offset="1" stop-color="#088291"/>
</linearGradient>
<linearGradient id="paint9_linear_145_46" x1="8372.93" y1="2771.5" x2="8279.74" y2="3620.08" gradientUnits="userSpaceOnUse">
<stop stop-color="#09BFC0"/>
<stop offset="1" stop-color="#088291"/>
</linearGradient>
<linearGradient id="paint10_linear_145_46" x1="5127.72" y1="2775.75" x2="5041.06" y2="3614.21" gradientUnits="userSpaceOnUse">
<stop stop-color="#09BFC0"/>
<stop offset="1" stop-color="#088291"/>
</linearGradient>
<linearGradient id="paint11_linear_145_46" x1="6050.04" y1="2775.4" x2="5950.01" y2="3611.28" gradientUnits="userSpaceOnUse">
<stop stop-color="#09BFC0"/>
<stop offset="1" stop-color="#088291"/>
</linearGradient>
<linearGradient id="paint12_linear_145_46" x1="7166.51" y1="2776.03" x2="7086.54" y2="3616.41" gradientUnits="userSpaceOnUse">
<stop stop-color="#09BFC0"/>
<stop offset="1" stop-color="#088291"/>
</linearGradient>
<linearGradient id="paint13_linear_145_46" x1="9434.97" y1="2777.4" x2="9332.6" y2="3610.03" gradientUnits="userSpaceOnUse">
<stop stop-color="#09BFC0"/>
<stop offset="1" stop-color="#088291"/>
</linearGradient>
<linearGradient id="paint14_linear_145_46" x1="7071.59" y1="3583.95" x2="7074.35" y2="4045.19" gradientUnits="userSpaceOnUse">
<stop stop-color="#48D9CA"/>
<stop offset="0.713422" stop-color="#088291"/>
</linearGradient>
<linearGradient id="paint15_linear_145_46" x1="4402" y1="3804.5" x2="5633" y2="3804.5" gradientUnits="userSpaceOnUse">
<stop stop-color="#138A8F"/>
<stop offset="1" stop-color="#12B9C7"/>
</linearGradient>
<linearGradient id="paint16_linear_145_46" x1="8878" y1="3804.5" x2="10109" y2="3804.5" gradientUnits="userSpaceOnUse">
<stop stop-color="#12BECD"/>
<stop offset="1" stop-color="#095F67"/>
</linearGradient>
</defs>
</svg>
