<svg xmlns="http://www.w3.org/2000/svg" viewBox="0 0 24 24"><path d="M20.5 11.7a8.3 8.3 0 0 1-12.3 7.2L3.5 20l1.2-4.5a8.3 8.3 0 1 1 15.8-3.8Z" fill="none" stroke="#088291" stroke-width="1.9" stroke-linecap="round" stroke-linejoin="round"/><path d="M8.2 7.6c.2-.5.5-.5.8-.5h.4c.2 0 .4.1.5.4l.7 1.7c.1.3 0 .5-.1.7l-.6.7c-.2.2-.1.4 0 .6.7 1.2 1.7 2.1 2.9 2.7.2.1.4.1.6-.1l.8-1c.2-.2.4-.3.7-.2l1.7.8c.3.1.4.3.4.5 0 .4-.2 1.3-.7 1.8-.5.5-1.3.8-2.1.7-1.3-.2-3.2-.8-5-2.4-1.4-1.3-2.5-2.9-2.8-4.2-.3-1.1.1-1.8.4-2.2Z" fill="#088291"/></svg>
